G75*
%MOIN*%
%OFA0B0*%
%FSLAX25Y25*%
%IPPOS*%
%LPD*%
%AMOC8*
5,1,8,0,0,1.08239X$1,22.5*
%
%ADD10C,0.05200*%
%ADD11OC8,0.05200*%
%ADD12C,0.05937*%
%ADD13C,0.05937*%
%ADD14C,0.06000*%
%ADD15C,0.02400*%
%ADD16C,0.05600*%
%ADD17C,0.01600*%
D10*
X0152595Y0161333D02*
X0152595Y0166533D01*
X0162595Y0166533D02*
X0162595Y0161333D01*
X0172595Y0161333D02*
X0172595Y0166533D01*
X0182595Y0166533D02*
X0182595Y0161333D01*
X0212595Y0161333D02*
X0212595Y0166533D01*
X0222595Y0166533D02*
X0222595Y0161333D01*
X0232595Y0161333D02*
X0232595Y0166533D01*
X0242595Y0166533D02*
X0242595Y0161333D01*
X0267595Y0161333D02*
X0267595Y0166533D01*
X0277595Y0166533D02*
X0277595Y0161333D01*
X0287595Y0161333D02*
X0287595Y0166533D01*
X0297595Y0166533D02*
X0297595Y0161333D01*
X0297595Y0191333D02*
X0297595Y0196533D01*
X0287595Y0196533D02*
X0287595Y0191333D01*
X0277595Y0191333D02*
X0277595Y0196533D01*
X0267595Y0196533D02*
X0267595Y0191333D01*
X0242595Y0191333D02*
X0242595Y0196533D01*
X0232595Y0196533D02*
X0232595Y0191333D01*
X0222595Y0191333D02*
X0222595Y0196533D01*
X0212595Y0196533D02*
X0212595Y0191333D01*
X0182595Y0191333D02*
X0182595Y0196533D01*
X0172595Y0196533D02*
X0172595Y0191333D01*
X0162595Y0191333D02*
X0162595Y0196533D01*
X0152595Y0196533D02*
X0152595Y0191333D01*
X0065195Y0193933D02*
X0059995Y0193933D01*
X0059995Y0203933D02*
X0065195Y0203933D01*
X0065195Y0213933D02*
X0059995Y0213933D01*
X0059995Y0223933D02*
X0065195Y0223933D01*
X0065195Y0233933D02*
X0059995Y0233933D01*
X0059995Y0243933D02*
X0065195Y0243933D01*
X0065195Y0253933D02*
X0059995Y0253933D01*
X0059995Y0183933D02*
X0065195Y0183933D01*
D11*
X0152595Y0208933D03*
X0172595Y0208933D03*
X0212595Y0208933D03*
X0232595Y0208933D03*
X0267595Y0208933D03*
X0287595Y0208933D03*
X0287595Y0248933D03*
X0267595Y0248933D03*
X0232595Y0248933D03*
X0212595Y0248933D03*
X0172595Y0248933D03*
X0152595Y0248933D03*
X0162595Y0148933D03*
X0182595Y0148933D03*
X0222595Y0148933D03*
X0242595Y0148933D03*
X0277595Y0148933D03*
X0297595Y0148933D03*
X0297595Y0108933D03*
X0277595Y0108933D03*
X0242595Y0108933D03*
X0222595Y0108933D03*
X0182595Y0108933D03*
X0162595Y0108933D03*
D12*
X0112595Y0178933D03*
X0102595Y0178933D03*
X0102595Y0188933D03*
X0102595Y0198933D03*
X0112595Y0198933D03*
X0112595Y0188933D03*
X0112595Y0208933D03*
X0102595Y0208933D03*
X0102595Y0218933D03*
X0102595Y0228933D03*
X0112595Y0228933D03*
X0112595Y0218933D03*
X0112595Y0238933D03*
X0102595Y0238933D03*
D13*
X0122595Y0086902D02*
X0122595Y0080965D01*
X0132595Y0080965D02*
X0132595Y0086902D01*
X0302595Y0086902D02*
X0302595Y0080965D01*
X0312595Y0080965D02*
X0312595Y0086902D01*
X0349627Y0083933D02*
X0355564Y0083933D01*
X0355564Y0093933D02*
X0349627Y0093933D01*
X0349627Y0103933D02*
X0355564Y0103933D01*
X0355564Y0113933D02*
X0349627Y0113933D01*
X0349627Y0133933D02*
X0355564Y0133933D01*
X0355564Y0143933D02*
X0349627Y0143933D01*
X0325564Y0213933D02*
X0319627Y0213933D01*
X0319627Y0223933D02*
X0325564Y0223933D01*
X0325564Y0233933D02*
X0319627Y0233933D01*
X0319627Y0243933D02*
X0325564Y0243933D01*
D14*
X0282595Y0081933D02*
X0282595Y0075933D01*
X0272595Y0075933D02*
X0272595Y0081933D01*
X0262595Y0081933D02*
X0262595Y0075933D01*
X0252595Y0075933D02*
X0252595Y0081933D01*
X0242595Y0081933D02*
X0242595Y0075933D01*
X0197595Y0075933D02*
X0197595Y0081933D01*
X0187595Y0081933D02*
X0187595Y0075933D01*
X0177595Y0075933D02*
X0177595Y0081933D01*
X0167595Y0081933D02*
X0167595Y0075933D01*
X0157595Y0075933D02*
X0157595Y0081933D01*
D15*
X0157595Y0078933D02*
X0157595Y0158933D01*
X0152595Y0163933D01*
X0162595Y0163933D02*
X0162595Y0148933D01*
X0167595Y0158933D02*
X0167595Y0078933D01*
X0177595Y0078933D02*
X0177595Y0128933D01*
X0212595Y0163933D01*
X0222595Y0163933D02*
X0222595Y0148933D01*
X0237595Y0158933D02*
X0232595Y0163933D01*
X0237595Y0158933D02*
X0237595Y0083933D01*
X0242595Y0078933D01*
X0252595Y0078933D02*
X0252595Y0148933D01*
X0267595Y0163933D01*
X0277595Y0163933D02*
X0277595Y0148933D01*
X0282595Y0158933D02*
X0282595Y0123933D01*
X0262595Y0103933D01*
X0262595Y0078933D01*
X0272595Y0078933D02*
X0277595Y0083933D01*
X0277595Y0108933D01*
X0297595Y0108933D01*
X0287595Y0078933D02*
X0282595Y0078933D01*
X0287595Y0078933D02*
X0352595Y0143933D01*
X0297595Y0148933D02*
X0297595Y0163933D01*
X0287595Y0163933D02*
X0282595Y0158933D01*
X0242595Y0163933D02*
X0242595Y0148933D01*
X0222595Y0108933D02*
X0182595Y0108933D01*
X0182595Y0083933D01*
X0187595Y0078933D01*
X0182595Y0148933D02*
X0182595Y0163933D01*
X0172595Y0163933D02*
X0167595Y0158933D01*
X0162595Y0173933D02*
X0107595Y0173933D01*
X0102595Y0178933D01*
X0112595Y0178933D02*
X0147595Y0178933D01*
X0162595Y0193933D01*
X0172595Y0193933D02*
X0172595Y0208933D01*
X0182595Y0193933D02*
X0162595Y0173933D01*
X0152595Y0193933D02*
X0152595Y0208933D01*
X0112595Y0218933D02*
X0107595Y0213933D01*
X0092595Y0213933D01*
X0062595Y0243933D01*
X0062595Y0233933D02*
X0052595Y0223933D01*
X0052595Y0203933D01*
X0062595Y0193933D01*
X0072595Y0193933D02*
X0062595Y0183933D01*
X0072595Y0193933D02*
X0072595Y0213933D01*
X0062595Y0223933D01*
X0062595Y0253933D02*
X0097595Y0218933D01*
X0102595Y0218933D01*
X0112595Y0228933D02*
X0307595Y0228933D01*
X0322595Y0213933D01*
X0322595Y0233933D02*
X0107595Y0233933D01*
X0102595Y0238933D01*
X0152595Y0248933D02*
X0172595Y0248933D01*
X0212595Y0248933D01*
X0232595Y0248933D01*
X0267595Y0248933D01*
X0287595Y0248933D01*
X0287595Y0208933D02*
X0287595Y0193933D01*
X0267595Y0193933D02*
X0267595Y0208933D01*
X0232595Y0208933D02*
X0232595Y0193933D01*
X0212595Y0193933D02*
X0212595Y0208933D01*
D16*
X0352595Y0103933D02*
X0362595Y0098933D01*
X0362595Y0088933D01*
X0352595Y0083933D01*
X0312595Y0083933D01*
D17*
X0037395Y0058733D02*
X0037395Y0264094D01*
X0376496Y0264094D01*
X0376496Y0058733D01*
X0037395Y0058733D01*
X0037395Y0059435D02*
X0376496Y0059435D01*
X0376496Y0061033D02*
X0037395Y0061033D01*
X0037395Y0062632D02*
X0376496Y0062632D01*
X0376496Y0064230D02*
X0037395Y0064230D01*
X0037395Y0065829D02*
X0376496Y0065829D01*
X0376496Y0067427D02*
X0037395Y0067427D01*
X0037395Y0069026D02*
X0376496Y0069026D01*
X0376496Y0070624D02*
X0285980Y0070624D01*
X0286107Y0070677D02*
X0287851Y0072421D01*
X0288779Y0074661D01*
X0290088Y0075203D01*
X0291325Y0076441D01*
X0296427Y0081542D01*
X0296427Y0079738D01*
X0297366Y0077470D01*
X0299101Y0075735D01*
X0301368Y0074796D01*
X0303822Y0074796D01*
X0306089Y0075735D01*
X0307595Y0077241D01*
X0309101Y0075735D01*
X0311368Y0074796D01*
X0313822Y0074796D01*
X0316089Y0075735D01*
X0317825Y0077470D01*
X0318016Y0077933D01*
X0347993Y0077933D01*
X0348400Y0077765D01*
X0356791Y0077765D01*
X0359058Y0078704D01*
X0360793Y0080439D01*
X0361255Y0081555D01*
X0365088Y0083471D01*
X0365994Y0083847D01*
X0366149Y0084002D01*
X0366346Y0084100D01*
X0366988Y0084841D01*
X0367682Y0085534D01*
X0367766Y0085737D01*
X0367910Y0085903D01*
X0368220Y0086834D01*
X0368595Y0087740D01*
X0368595Y0087959D01*
X0368665Y0088168D01*
X0368595Y0089146D01*
X0368595Y0098720D01*
X0368665Y0099698D01*
X0368595Y0099907D01*
X0368595Y0100127D01*
X0368220Y0101032D01*
X0367910Y0101963D01*
X0367766Y0102129D01*
X0367682Y0102332D01*
X0366988Y0103025D01*
X0366346Y0103766D01*
X0366149Y0103864D01*
X0365994Y0104020D01*
X0365088Y0104395D01*
X0361255Y0106311D01*
X0360793Y0107427D01*
X0359287Y0108933D01*
X0360793Y0110439D01*
X0361732Y0112706D01*
X0361732Y0115160D01*
X0360793Y0117427D01*
X0359058Y0119162D01*
X0356791Y0120102D01*
X0348400Y0120102D01*
X0346132Y0119162D01*
X0344397Y0117427D01*
X0343458Y0115160D01*
X0343458Y0112706D01*
X0344397Y0110439D01*
X0345903Y0108933D01*
X0344397Y0107427D01*
X0343458Y0105160D01*
X0343458Y0102706D01*
X0344397Y0100439D01*
X0345903Y0098933D01*
X0344397Y0097427D01*
X0343458Y0095160D01*
X0343458Y0092706D01*
X0344397Y0090439D01*
X0344903Y0089933D01*
X0318016Y0089933D01*
X0317825Y0090396D01*
X0316089Y0092131D01*
X0313822Y0093070D01*
X0311368Y0093070D01*
X0309101Y0092131D01*
X0307595Y0090625D01*
X0306552Y0091668D01*
X0344860Y0129976D01*
X0346132Y0128704D01*
X0348400Y0127765D01*
X0356791Y0127765D01*
X0359058Y0128704D01*
X0360793Y0130439D01*
X0361732Y0132706D01*
X0361732Y0135160D01*
X0360793Y0137427D01*
X0359287Y0138933D01*
X0360793Y0140439D01*
X0361732Y0142706D01*
X0361732Y0145160D01*
X0360793Y0147427D01*
X0359058Y0149162D01*
X0356791Y0150102D01*
X0348400Y0150102D01*
X0346132Y0149162D01*
X0344397Y0147427D01*
X0343458Y0145160D01*
X0343458Y0142706D01*
X0343952Y0141513D01*
X0287861Y0085421D01*
X0287851Y0085445D01*
X0286107Y0087189D01*
X0283828Y0088133D01*
X0281995Y0088133D01*
X0281995Y0104533D01*
X0293793Y0104533D01*
X0295193Y0103133D01*
X0299998Y0103133D01*
X0303395Y0106531D01*
X0303395Y0111335D01*
X0299998Y0114733D01*
X0295193Y0114733D01*
X0293793Y0113333D01*
X0281398Y0113333D01*
X0279998Y0114733D01*
X0279618Y0114733D01*
X0286325Y0121441D01*
X0286995Y0123058D01*
X0286995Y0155533D01*
X0288749Y0155533D01*
X0290881Y0156416D01*
X0292512Y0158048D01*
X0292595Y0158248D01*
X0292678Y0158048D01*
X0293195Y0157531D01*
X0293195Y0152735D01*
X0291795Y0151335D01*
X0291795Y0146531D01*
X0295193Y0143133D01*
X0299998Y0143133D01*
X0303395Y0146531D01*
X0303395Y0151335D01*
X0301995Y0152735D01*
X0301995Y0157531D01*
X0302512Y0158048D01*
X0303395Y0160179D01*
X0303395Y0167687D01*
X0302512Y0169819D01*
X0300881Y0171450D01*
X0298749Y0172333D01*
X0296441Y0172333D01*
X0294310Y0171450D01*
X0292678Y0169819D01*
X0292595Y0169618D01*
X0292512Y0169819D01*
X0290881Y0171450D01*
X0288749Y0172333D01*
X0286441Y0172333D01*
X0284310Y0171450D01*
X0282678Y0169819D01*
X0282595Y0169618D01*
X0282512Y0169819D01*
X0280881Y0171450D01*
X0278749Y0172333D01*
X0276441Y0172333D01*
X0274310Y0171450D01*
X0272678Y0169819D01*
X0272595Y0169618D01*
X0272512Y0169819D01*
X0270881Y0171450D01*
X0268749Y0172333D01*
X0266441Y0172333D01*
X0264310Y0171450D01*
X0262678Y0169819D01*
X0261795Y0167687D01*
X0261795Y0164356D01*
X0250103Y0152663D01*
X0248865Y0151425D01*
X0248395Y0150291D01*
X0248395Y0151335D01*
X0246995Y0152735D01*
X0246995Y0157531D01*
X0247512Y0158048D01*
X0248395Y0160179D01*
X0248395Y0167687D01*
X0247512Y0169819D01*
X0245881Y0171450D01*
X0243749Y0172333D01*
X0241441Y0172333D01*
X0239310Y0171450D01*
X0237678Y0169819D01*
X0237595Y0169618D01*
X0237512Y0169819D01*
X0235881Y0171450D01*
X0233749Y0172333D01*
X0231441Y0172333D01*
X0229310Y0171450D01*
X0227678Y0169819D01*
X0227595Y0169618D01*
X0227512Y0169819D01*
X0225881Y0171450D01*
X0223749Y0172333D01*
X0221441Y0172333D01*
X0219310Y0171450D01*
X0217678Y0169819D01*
X0217595Y0169618D01*
X0217512Y0169819D01*
X0215881Y0171450D01*
X0213749Y0172333D01*
X0211441Y0172333D01*
X0209310Y0171450D01*
X0207678Y0169819D01*
X0206795Y0167687D01*
X0206795Y0164356D01*
X0175103Y0132663D01*
X0173865Y0131425D01*
X0173195Y0129808D01*
X0173195Y0086301D01*
X0172595Y0085701D01*
X0171995Y0086301D01*
X0171995Y0155533D01*
X0173749Y0155533D01*
X0175881Y0156416D01*
X0177512Y0158048D01*
X0177595Y0158248D01*
X0177678Y0158048D01*
X0178195Y0157531D01*
X0178195Y0152735D01*
X0176795Y0151335D01*
X0176795Y0146531D01*
X0180193Y0143133D01*
X0184998Y0143133D01*
X0188395Y0146531D01*
X0188395Y0151335D01*
X0186995Y0152735D01*
X0186995Y0157531D01*
X0187512Y0158048D01*
X0188395Y0160179D01*
X0188395Y0167687D01*
X0187512Y0169819D01*
X0185881Y0171450D01*
X0183749Y0172333D01*
X0181441Y0172333D01*
X0179310Y0171450D01*
X0177678Y0169819D01*
X0177595Y0169618D01*
X0177512Y0169819D01*
X0175881Y0171450D01*
X0173749Y0172333D01*
X0171441Y0172333D01*
X0169310Y0171450D01*
X0167678Y0169819D01*
X0167595Y0169618D01*
X0167512Y0169819D01*
X0166108Y0171223D01*
X0166325Y0171441D01*
X0180718Y0185833D01*
X0181441Y0185533D01*
X0183749Y0185533D01*
X0185881Y0186416D01*
X0187512Y0188048D01*
X0188395Y0190179D01*
X0188395Y0197687D01*
X0187512Y0199819D01*
X0185881Y0201450D01*
X0183749Y0202333D01*
X0181441Y0202333D01*
X0179310Y0201450D01*
X0177678Y0199819D01*
X0177595Y0199618D01*
X0177512Y0199819D01*
X0176995Y0200335D01*
X0176995Y0205131D01*
X0178395Y0206531D01*
X0178395Y0211335D01*
X0174998Y0214733D01*
X0170193Y0214733D01*
X0166795Y0211335D01*
X0166795Y0206531D01*
X0168195Y0205131D01*
X0168195Y0200335D01*
X0167678Y0199819D01*
X0167595Y0199618D01*
X0167512Y0199819D01*
X0165881Y0201450D01*
X0163749Y0202333D01*
X0161441Y0202333D01*
X0159310Y0201450D01*
X0157678Y0199819D01*
X0157595Y0199618D01*
X0157512Y0199819D01*
X0156995Y0200335D01*
X0156995Y0205131D01*
X0158395Y0206531D01*
X0158395Y0211335D01*
X0154998Y0214733D01*
X0150193Y0214733D01*
X0146795Y0211335D01*
X0146795Y0206531D01*
X0148195Y0205131D01*
X0148195Y0200335D01*
X0147678Y0199819D01*
X0146795Y0197687D01*
X0146795Y0190179D01*
X0147678Y0188048D01*
X0149083Y0186643D01*
X0145773Y0183333D01*
X0116919Y0183333D01*
X0116319Y0183933D01*
X0117825Y0185439D01*
X0118764Y0187706D01*
X0118764Y0190160D01*
X0117825Y0192427D01*
X0116319Y0193933D01*
X0117825Y0195439D01*
X0118764Y0197706D01*
X0118764Y0200160D01*
X0117825Y0202427D01*
X0116319Y0203933D01*
X0117825Y0205439D01*
X0118764Y0207706D01*
X0118764Y0210160D01*
X0117825Y0212427D01*
X0116319Y0213933D01*
X0117825Y0215439D01*
X0118764Y0217706D01*
X0118764Y0220160D01*
X0117825Y0222427D01*
X0116319Y0223933D01*
X0116919Y0224533D01*
X0305773Y0224533D01*
X0313952Y0216353D01*
X0313458Y0215160D01*
X0313458Y0212706D01*
X0314397Y0210439D01*
X0316132Y0208704D01*
X0318400Y0207765D01*
X0326791Y0207765D01*
X0329058Y0208704D01*
X0330793Y0210439D01*
X0331732Y0212706D01*
X0331732Y0215160D01*
X0330793Y0217427D01*
X0329287Y0218933D01*
X0330793Y0220439D01*
X0331732Y0222706D01*
X0331732Y0225160D01*
X0330793Y0227427D01*
X0329287Y0228933D01*
X0330793Y0230439D01*
X0331732Y0232706D01*
X0331732Y0235160D01*
X0330793Y0237427D01*
X0329287Y0238933D01*
X0330793Y0240439D01*
X0331732Y0242706D01*
X0331732Y0245160D01*
X0330793Y0247427D01*
X0329058Y0249162D01*
X0326791Y0250102D01*
X0318400Y0250102D01*
X0316132Y0249162D01*
X0314397Y0247427D01*
X0313458Y0245160D01*
X0313458Y0242706D01*
X0314397Y0240439D01*
X0315903Y0238933D01*
X0315303Y0238333D01*
X0118764Y0238333D01*
X0118764Y0240160D01*
X0117825Y0242427D01*
X0116089Y0244162D01*
X0113822Y0245102D01*
X0111368Y0245102D01*
X0109101Y0244162D01*
X0107595Y0242657D01*
X0106089Y0244162D01*
X0103822Y0245102D01*
X0101368Y0245102D01*
X0099101Y0244162D01*
X0097366Y0242427D01*
X0096427Y0240160D01*
X0096427Y0237706D01*
X0097366Y0235439D01*
X0098872Y0233933D01*
X0097366Y0232427D01*
X0096427Y0230160D01*
X0096427Y0227706D01*
X0097366Y0225439D01*
X0098872Y0223933D01*
X0098845Y0223906D01*
X0070695Y0252055D01*
X0070995Y0252779D01*
X0070995Y0255087D01*
X0070112Y0257219D01*
X0068481Y0258850D01*
X0066349Y0259733D01*
X0058841Y0259733D01*
X0056710Y0258850D01*
X0055078Y0257219D01*
X0054195Y0255087D01*
X0054195Y0252779D01*
X0055078Y0250648D01*
X0056710Y0249016D01*
X0056910Y0248933D01*
X0056710Y0248850D01*
X0055078Y0247219D01*
X0054195Y0245087D01*
X0054195Y0242779D01*
X0055078Y0240648D01*
X0056710Y0239016D01*
X0056910Y0238933D01*
X0056710Y0238850D01*
X0055078Y0237219D01*
X0054195Y0235087D01*
X0054195Y0232779D01*
X0054495Y0232055D01*
X0048865Y0226425D01*
X0048195Y0224808D01*
X0048195Y0203058D01*
X0048865Y0201441D01*
X0054495Y0195811D01*
X0054195Y0195087D01*
X0054195Y0192779D01*
X0055078Y0190648D01*
X0056710Y0189016D01*
X0056910Y0188933D01*
X0056710Y0188850D01*
X0055078Y0187219D01*
X0054195Y0185087D01*
X0054195Y0182779D01*
X0055078Y0180648D01*
X0056710Y0179016D01*
X0058841Y0178133D01*
X0066349Y0178133D01*
X0068481Y0179016D01*
X0070112Y0180648D01*
X0070995Y0182779D01*
X0070995Y0185087D01*
X0070695Y0185811D01*
X0075088Y0190203D01*
X0076325Y0191441D01*
X0076995Y0193058D01*
X0076995Y0214808D01*
X0076325Y0216425D01*
X0070695Y0222055D01*
X0070995Y0222779D01*
X0070995Y0225087D01*
X0070112Y0227219D01*
X0068481Y0228850D01*
X0068280Y0228933D01*
X0068481Y0229016D01*
X0069885Y0230421D01*
X0088865Y0211441D01*
X0090103Y0210203D01*
X0091720Y0209533D01*
X0096427Y0209533D01*
X0096427Y0207706D01*
X0097366Y0205439D01*
X0098872Y0203933D01*
X0097366Y0202427D01*
X0096427Y0200160D01*
X0096427Y0197706D01*
X0097366Y0195439D01*
X0098872Y0193933D01*
X0097366Y0192427D01*
X0096427Y0190160D01*
X0096427Y0187706D01*
X0097366Y0185439D01*
X0098872Y0183933D01*
X0097366Y0182427D01*
X0096427Y0180160D01*
X0096427Y0177706D01*
X0097366Y0175439D01*
X0099101Y0173704D01*
X0101368Y0172765D01*
X0102541Y0172765D01*
X0105103Y0170203D01*
X0106720Y0169533D01*
X0147560Y0169533D01*
X0146795Y0167687D01*
X0146795Y0160179D01*
X0147678Y0158048D01*
X0149310Y0156416D01*
X0151441Y0155533D01*
X0153195Y0155533D01*
X0153195Y0086301D01*
X0152339Y0085445D01*
X0151395Y0083166D01*
X0151395Y0074700D01*
X0152339Y0072421D01*
X0154083Y0070677D01*
X0156362Y0069733D01*
X0158828Y0069733D01*
X0161107Y0070677D01*
X0162595Y0072165D01*
X0164083Y0070677D01*
X0166362Y0069733D01*
X0168828Y0069733D01*
X0171107Y0070677D01*
X0172595Y0072165D01*
X0174083Y0070677D01*
X0176362Y0069733D01*
X0178828Y0069733D01*
X0181107Y0070677D01*
X0182595Y0072165D01*
X0184083Y0070677D01*
X0186362Y0069733D01*
X0188828Y0069733D01*
X0191107Y0070677D01*
X0192595Y0072165D01*
X0194083Y0070677D01*
X0196362Y0069733D01*
X0198828Y0069733D01*
X0201107Y0070677D01*
X0202851Y0072421D01*
X0203795Y0074700D01*
X0203795Y0083166D01*
X0202851Y0085445D01*
X0201107Y0087189D01*
X0198828Y0088133D01*
X0196362Y0088133D01*
X0194083Y0087189D01*
X0192595Y0085701D01*
X0191107Y0087189D01*
X0188828Y0088133D01*
X0186995Y0088133D01*
X0186995Y0104533D01*
X0218793Y0104533D01*
X0220193Y0103133D01*
X0224998Y0103133D01*
X0228395Y0106531D01*
X0228395Y0111335D01*
X0224998Y0114733D01*
X0220193Y0114733D01*
X0218793Y0113333D01*
X0186398Y0113333D01*
X0184998Y0114733D01*
X0181995Y0114733D01*
X0181995Y0127111D01*
X0210718Y0155833D01*
X0211441Y0155533D01*
X0213749Y0155533D01*
X0215881Y0156416D01*
X0217512Y0158048D01*
X0217595Y0158248D01*
X0217678Y0158048D01*
X0218195Y0157531D01*
X0218195Y0152735D01*
X0216795Y0151335D01*
X0216795Y0146531D01*
X0220193Y0143133D01*
X0224998Y0143133D01*
X0228395Y0146531D01*
X0228395Y0151335D01*
X0226995Y0152735D01*
X0226995Y0157531D01*
X0227512Y0158048D01*
X0227595Y0158248D01*
X0227678Y0158048D01*
X0229310Y0156416D01*
X0231441Y0155533D01*
X0233195Y0155533D01*
X0233195Y0083058D01*
X0233865Y0081441D01*
X0236395Y0078911D01*
X0236395Y0074700D01*
X0237339Y0072421D01*
X0239083Y0070677D01*
X0241362Y0069733D01*
X0243828Y0069733D01*
X0246107Y0070677D01*
X0247595Y0072165D01*
X0249083Y0070677D01*
X0251362Y0069733D01*
X0253828Y0069733D01*
X0256107Y0070677D01*
X0257595Y0072165D01*
X0259083Y0070677D01*
X0261362Y0069733D01*
X0263828Y0069733D01*
X0266107Y0070677D01*
X0267595Y0072165D01*
X0269083Y0070677D01*
X0271362Y0069733D01*
X0273828Y0069733D01*
X0276107Y0070677D01*
X0277595Y0072165D01*
X0279083Y0070677D01*
X0281362Y0069733D01*
X0283828Y0069733D01*
X0286107Y0070677D01*
X0287653Y0072223D02*
X0376496Y0072223D01*
X0376496Y0073821D02*
X0288431Y0073821D01*
X0290305Y0075420D02*
X0299862Y0075420D01*
X0297818Y0077018D02*
X0291903Y0077018D01*
X0293502Y0078617D02*
X0296891Y0078617D01*
X0296427Y0080215D02*
X0295100Y0080215D01*
X0289049Y0086610D02*
X0286687Y0086610D01*
X0290648Y0088208D02*
X0281995Y0088208D01*
X0281995Y0089807D02*
X0292246Y0089807D01*
X0293845Y0091405D02*
X0281995Y0091405D01*
X0281995Y0093004D02*
X0295443Y0093004D01*
X0297042Y0094602D02*
X0281995Y0094602D01*
X0281995Y0096201D02*
X0298640Y0096201D01*
X0300239Y0097799D02*
X0281995Y0097799D01*
X0281995Y0099398D02*
X0301837Y0099398D01*
X0303436Y0100996D02*
X0281995Y0100996D01*
X0281995Y0102595D02*
X0305034Y0102595D01*
X0306633Y0104193D02*
X0301058Y0104193D01*
X0302656Y0105792D02*
X0308231Y0105792D01*
X0309830Y0107390D02*
X0303395Y0107390D01*
X0303395Y0108989D02*
X0311428Y0108989D01*
X0313027Y0110587D02*
X0303395Y0110587D01*
X0302545Y0112186D02*
X0314625Y0112186D01*
X0316224Y0113784D02*
X0300946Y0113784D01*
X0294244Y0113784D02*
X0280946Y0113784D01*
X0280267Y0115383D02*
X0317822Y0115383D01*
X0319421Y0116981D02*
X0281866Y0116981D01*
X0283464Y0118580D02*
X0321019Y0118580D01*
X0322618Y0120178D02*
X0285063Y0120178D01*
X0286464Y0121777D02*
X0324216Y0121777D01*
X0325815Y0123375D02*
X0286995Y0123375D01*
X0286995Y0124974D02*
X0327413Y0124974D01*
X0329012Y0126572D02*
X0286995Y0126572D01*
X0286995Y0128171D02*
X0330610Y0128171D01*
X0332209Y0129769D02*
X0286995Y0129769D01*
X0286995Y0131368D02*
X0333807Y0131368D01*
X0335406Y0132966D02*
X0286995Y0132966D01*
X0286995Y0134565D02*
X0337004Y0134565D01*
X0338603Y0136163D02*
X0286995Y0136163D01*
X0286995Y0137762D02*
X0340201Y0137762D01*
X0341800Y0139360D02*
X0286995Y0139360D01*
X0286995Y0140959D02*
X0343398Y0140959D01*
X0343520Y0142557D02*
X0286995Y0142557D01*
X0286995Y0144156D02*
X0294170Y0144156D01*
X0292571Y0145754D02*
X0286995Y0145754D01*
X0286995Y0147353D02*
X0291795Y0147353D01*
X0291795Y0148951D02*
X0286995Y0148951D01*
X0286995Y0150550D02*
X0291795Y0150550D01*
X0292608Y0152148D02*
X0286995Y0152148D01*
X0286995Y0153747D02*
X0293195Y0153747D01*
X0293195Y0155345D02*
X0286995Y0155345D01*
X0291409Y0156944D02*
X0293195Y0156944D01*
X0301995Y0156944D02*
X0376496Y0156944D01*
X0376496Y0155345D02*
X0301995Y0155345D01*
X0301995Y0153747D02*
X0376496Y0153747D01*
X0376496Y0152148D02*
X0302582Y0152148D01*
X0303395Y0150550D02*
X0376496Y0150550D01*
X0376496Y0148951D02*
X0359269Y0148951D01*
X0360824Y0147353D02*
X0376496Y0147353D01*
X0376496Y0145754D02*
X0361486Y0145754D01*
X0361732Y0144156D02*
X0376496Y0144156D01*
X0376496Y0142557D02*
X0361671Y0142557D01*
X0361008Y0140959D02*
X0376496Y0140959D01*
X0376496Y0139360D02*
X0359715Y0139360D01*
X0360458Y0137762D02*
X0376496Y0137762D01*
X0376496Y0136163D02*
X0361317Y0136163D01*
X0361732Y0134565D02*
X0376496Y0134565D01*
X0376496Y0132966D02*
X0361732Y0132966D01*
X0361178Y0131368D02*
X0376496Y0131368D01*
X0376496Y0129769D02*
X0360123Y0129769D01*
X0357771Y0128171D02*
X0376496Y0128171D01*
X0376496Y0126572D02*
X0341457Y0126572D01*
X0339858Y0124974D02*
X0376496Y0124974D01*
X0376496Y0123375D02*
X0338260Y0123375D01*
X0336661Y0121777D02*
X0376496Y0121777D01*
X0376496Y0120178D02*
X0335063Y0120178D01*
X0333464Y0118580D02*
X0345550Y0118580D01*
X0344212Y0116981D02*
X0331866Y0116981D01*
X0330267Y0115383D02*
X0343550Y0115383D01*
X0343458Y0113784D02*
X0328669Y0113784D01*
X0327070Y0112186D02*
X0343674Y0112186D01*
X0344336Y0110587D02*
X0325472Y0110587D01*
X0323873Y0108989D02*
X0345847Y0108989D01*
X0344382Y0107390D02*
X0322275Y0107390D01*
X0320676Y0105792D02*
X0343720Y0105792D01*
X0343458Y0104193D02*
X0319078Y0104193D01*
X0317479Y0102595D02*
X0343504Y0102595D01*
X0344166Y0100996D02*
X0315881Y0100996D01*
X0314282Y0099398D02*
X0345439Y0099398D01*
X0344769Y0097799D02*
X0312684Y0097799D01*
X0311085Y0096201D02*
X0343889Y0096201D01*
X0343458Y0094602D02*
X0309487Y0094602D01*
X0307888Y0093004D02*
X0311208Y0093004D01*
X0313983Y0093004D02*
X0343458Y0093004D01*
X0343997Y0091405D02*
X0316815Y0091405D01*
X0308375Y0091405D02*
X0306815Y0091405D01*
X0307373Y0077018D02*
X0307818Y0077018D01*
X0309862Y0075420D02*
X0305328Y0075420D01*
X0315328Y0075420D02*
X0376496Y0075420D01*
X0376496Y0077018D02*
X0317373Y0077018D01*
X0294133Y0104193D02*
X0281995Y0104193D01*
X0273195Y0104193D02*
X0269078Y0104193D01*
X0270676Y0105792D02*
X0272534Y0105792D01*
X0273195Y0105131D02*
X0271795Y0106531D01*
X0271795Y0106911D01*
X0266995Y0102111D01*
X0266995Y0086301D01*
X0267595Y0085701D01*
X0269083Y0087189D01*
X0271362Y0088133D01*
X0273195Y0088133D01*
X0273195Y0105131D01*
X0273195Y0102595D02*
X0267479Y0102595D01*
X0266995Y0100996D02*
X0273195Y0100996D01*
X0273195Y0099398D02*
X0266995Y0099398D01*
X0266995Y0097799D02*
X0273195Y0097799D01*
X0273195Y0096201D02*
X0266995Y0096201D01*
X0266995Y0094602D02*
X0273195Y0094602D01*
X0273195Y0093004D02*
X0266995Y0093004D01*
X0266995Y0091405D02*
X0273195Y0091405D01*
X0273195Y0089807D02*
X0266995Y0089807D01*
X0266995Y0088208D02*
X0273195Y0088208D01*
X0268503Y0086610D02*
X0266995Y0086610D01*
X0258195Y0086610D02*
X0256995Y0086610D01*
X0256995Y0086301D02*
X0256995Y0147111D01*
X0265718Y0155833D01*
X0266441Y0155533D01*
X0268749Y0155533D01*
X0270881Y0156416D01*
X0272512Y0158048D01*
X0272595Y0158248D01*
X0272678Y0158048D01*
X0273195Y0157531D01*
X0273195Y0152735D01*
X0271795Y0151335D01*
X0271795Y0146531D01*
X0275193Y0143133D01*
X0278195Y0143133D01*
X0278195Y0125756D01*
X0260103Y0107663D01*
X0258865Y0106425D01*
X0258195Y0104808D01*
X0258195Y0086301D01*
X0257595Y0085701D01*
X0256995Y0086301D01*
X0256995Y0088208D02*
X0258195Y0088208D01*
X0258195Y0089807D02*
X0256995Y0089807D01*
X0256995Y0091405D02*
X0258195Y0091405D01*
X0258195Y0093004D02*
X0256995Y0093004D01*
X0256995Y0094602D02*
X0258195Y0094602D01*
X0258195Y0096201D02*
X0256995Y0096201D01*
X0256995Y0097799D02*
X0258195Y0097799D01*
X0258195Y0099398D02*
X0256995Y0099398D01*
X0256995Y0100996D02*
X0258195Y0100996D01*
X0258195Y0102595D02*
X0256995Y0102595D01*
X0256995Y0104193D02*
X0258195Y0104193D01*
X0258602Y0105792D02*
X0256995Y0105792D01*
X0256995Y0107390D02*
X0259830Y0107390D01*
X0261428Y0108989D02*
X0256995Y0108989D01*
X0256995Y0110587D02*
X0263027Y0110587D01*
X0264625Y0112186D02*
X0256995Y0112186D01*
X0256995Y0113784D02*
X0266224Y0113784D01*
X0267822Y0115383D02*
X0256995Y0115383D01*
X0256995Y0116981D02*
X0269421Y0116981D01*
X0271019Y0118580D02*
X0256995Y0118580D01*
X0256995Y0120178D02*
X0272618Y0120178D01*
X0274216Y0121777D02*
X0256995Y0121777D01*
X0256995Y0123375D02*
X0275815Y0123375D01*
X0277413Y0124974D02*
X0256995Y0124974D01*
X0256995Y0126572D02*
X0278195Y0126572D01*
X0278195Y0128171D02*
X0256995Y0128171D01*
X0256995Y0129769D02*
X0278195Y0129769D01*
X0278195Y0131368D02*
X0256995Y0131368D01*
X0256995Y0132966D02*
X0278195Y0132966D01*
X0278195Y0134565D02*
X0256995Y0134565D01*
X0256995Y0136163D02*
X0278195Y0136163D01*
X0278195Y0137762D02*
X0256995Y0137762D01*
X0256995Y0139360D02*
X0278195Y0139360D01*
X0278195Y0140959D02*
X0256995Y0140959D01*
X0256995Y0142557D02*
X0278195Y0142557D01*
X0274170Y0144156D02*
X0256995Y0144156D01*
X0256995Y0145754D02*
X0272571Y0145754D01*
X0271795Y0147353D02*
X0257238Y0147353D01*
X0258836Y0148951D02*
X0271795Y0148951D01*
X0271795Y0150550D02*
X0260435Y0150550D01*
X0262033Y0152148D02*
X0272608Y0152148D01*
X0273195Y0153747D02*
X0263632Y0153747D01*
X0265230Y0155345D02*
X0273195Y0155345D01*
X0273195Y0156944D02*
X0271409Y0156944D01*
X0260778Y0163338D02*
X0248395Y0163338D01*
X0248395Y0161740D02*
X0259179Y0161740D01*
X0257581Y0160141D02*
X0248379Y0160141D01*
X0247717Y0158543D02*
X0255982Y0158543D01*
X0254384Y0156944D02*
X0246995Y0156944D01*
X0246995Y0155345D02*
X0252785Y0155345D01*
X0251187Y0153747D02*
X0246995Y0153747D01*
X0247582Y0152148D02*
X0249588Y0152148D01*
X0248502Y0150550D02*
X0248395Y0150550D01*
X0248195Y0146331D02*
X0248195Y0111535D01*
X0244998Y0114733D01*
X0241995Y0114733D01*
X0241995Y0143133D01*
X0244998Y0143133D01*
X0248195Y0146331D01*
X0248195Y0145754D02*
X0247619Y0145754D01*
X0248195Y0144156D02*
X0246020Y0144156D01*
X0248195Y0142557D02*
X0241995Y0142557D01*
X0241995Y0140959D02*
X0248195Y0140959D01*
X0248195Y0139360D02*
X0241995Y0139360D01*
X0241995Y0137762D02*
X0248195Y0137762D01*
X0248195Y0136163D02*
X0241995Y0136163D01*
X0241995Y0134565D02*
X0248195Y0134565D01*
X0248195Y0132966D02*
X0241995Y0132966D01*
X0241995Y0131368D02*
X0248195Y0131368D01*
X0248195Y0129769D02*
X0241995Y0129769D01*
X0241995Y0128171D02*
X0248195Y0128171D01*
X0248195Y0126572D02*
X0241995Y0126572D01*
X0241995Y0124974D02*
X0248195Y0124974D01*
X0248195Y0123375D02*
X0241995Y0123375D01*
X0241995Y0121777D02*
X0248195Y0121777D01*
X0248195Y0120178D02*
X0241995Y0120178D01*
X0241995Y0118580D02*
X0248195Y0118580D01*
X0248195Y0116981D02*
X0241995Y0116981D01*
X0241995Y0115383D02*
X0248195Y0115383D01*
X0248195Y0113784D02*
X0245946Y0113784D01*
X0247545Y0112186D02*
X0248195Y0112186D01*
X0248195Y0106331D02*
X0248195Y0086301D01*
X0247595Y0085701D01*
X0246107Y0087189D01*
X0243828Y0088133D01*
X0241995Y0088133D01*
X0241995Y0103133D01*
X0244998Y0103133D01*
X0248195Y0106331D01*
X0248195Y0105792D02*
X0247656Y0105792D01*
X0248195Y0104193D02*
X0246058Y0104193D01*
X0248195Y0102595D02*
X0241995Y0102595D01*
X0241995Y0100996D02*
X0248195Y0100996D01*
X0248195Y0099398D02*
X0241995Y0099398D01*
X0241995Y0097799D02*
X0248195Y0097799D01*
X0248195Y0096201D02*
X0241995Y0096201D01*
X0241995Y0094602D02*
X0248195Y0094602D01*
X0248195Y0093004D02*
X0241995Y0093004D01*
X0241995Y0091405D02*
X0248195Y0091405D01*
X0248195Y0089807D02*
X0241995Y0089807D01*
X0241995Y0088208D02*
X0248195Y0088208D01*
X0248195Y0086610D02*
X0246687Y0086610D01*
X0236395Y0078617D02*
X0203795Y0078617D01*
X0203795Y0080215D02*
X0235090Y0080215D01*
X0233710Y0081814D02*
X0203795Y0081814D01*
X0203693Y0083412D02*
X0233195Y0083412D01*
X0233195Y0085011D02*
X0203031Y0085011D01*
X0201687Y0086610D02*
X0233195Y0086610D01*
X0233195Y0088208D02*
X0186995Y0088208D01*
X0186995Y0089807D02*
X0233195Y0089807D01*
X0233195Y0091405D02*
X0186995Y0091405D01*
X0186995Y0093004D02*
X0233195Y0093004D01*
X0233195Y0094602D02*
X0186995Y0094602D01*
X0186995Y0096201D02*
X0233195Y0096201D01*
X0233195Y0097799D02*
X0186995Y0097799D01*
X0186995Y0099398D02*
X0233195Y0099398D01*
X0233195Y0100996D02*
X0186995Y0100996D01*
X0186995Y0102595D02*
X0233195Y0102595D01*
X0233195Y0104193D02*
X0226058Y0104193D01*
X0227656Y0105792D02*
X0233195Y0105792D01*
X0233195Y0107390D02*
X0228395Y0107390D01*
X0228395Y0108989D02*
X0233195Y0108989D01*
X0233195Y0110587D02*
X0228395Y0110587D01*
X0227545Y0112186D02*
X0233195Y0112186D01*
X0233195Y0113784D02*
X0225946Y0113784D01*
X0219244Y0113784D02*
X0185946Y0113784D01*
X0181995Y0115383D02*
X0233195Y0115383D01*
X0233195Y0116981D02*
X0181995Y0116981D01*
X0181995Y0118580D02*
X0233195Y0118580D01*
X0233195Y0120178D02*
X0181995Y0120178D01*
X0181995Y0121777D02*
X0233195Y0121777D01*
X0233195Y0123375D02*
X0181995Y0123375D01*
X0181995Y0124974D02*
X0233195Y0124974D01*
X0233195Y0126572D02*
X0181995Y0126572D01*
X0183055Y0128171D02*
X0233195Y0128171D01*
X0233195Y0129769D02*
X0184654Y0129769D01*
X0186252Y0131368D02*
X0233195Y0131368D01*
X0233195Y0132966D02*
X0187851Y0132966D01*
X0189449Y0134565D02*
X0233195Y0134565D01*
X0233195Y0136163D02*
X0191048Y0136163D01*
X0192646Y0137762D02*
X0233195Y0137762D01*
X0233195Y0139360D02*
X0194245Y0139360D01*
X0195843Y0140959D02*
X0233195Y0140959D01*
X0233195Y0142557D02*
X0197442Y0142557D01*
X0199041Y0144156D02*
X0219170Y0144156D01*
X0217571Y0145754D02*
X0200639Y0145754D01*
X0202238Y0147353D02*
X0216795Y0147353D01*
X0216795Y0148951D02*
X0203836Y0148951D01*
X0205435Y0150550D02*
X0216795Y0150550D01*
X0217608Y0152148D02*
X0207033Y0152148D01*
X0208632Y0153747D02*
X0218195Y0153747D01*
X0218195Y0155345D02*
X0210230Y0155345D01*
X0216409Y0156944D02*
X0218195Y0156944D01*
X0226995Y0156944D02*
X0228782Y0156944D01*
X0226995Y0155345D02*
X0233195Y0155345D01*
X0233195Y0153747D02*
X0226995Y0153747D01*
X0227582Y0152148D02*
X0233195Y0152148D01*
X0233195Y0150550D02*
X0228395Y0150550D01*
X0228395Y0148951D02*
X0233195Y0148951D01*
X0233195Y0147353D02*
X0228395Y0147353D01*
X0227619Y0145754D02*
X0233195Y0145754D01*
X0233195Y0144156D02*
X0226020Y0144156D01*
X0202581Y0160141D02*
X0188379Y0160141D01*
X0188395Y0161740D02*
X0204179Y0161740D01*
X0205778Y0163338D02*
X0188395Y0163338D01*
X0188395Y0164937D02*
X0206795Y0164937D01*
X0206795Y0166535D02*
X0188395Y0166535D01*
X0188210Y0168134D02*
X0206980Y0168134D01*
X0207642Y0169732D02*
X0187548Y0169732D01*
X0186000Y0171331D02*
X0209190Y0171331D01*
X0216000Y0171331D02*
X0219190Y0171331D01*
X0217642Y0169732D02*
X0217548Y0169732D01*
X0226000Y0171331D02*
X0229190Y0171331D01*
X0227642Y0169732D02*
X0227548Y0169732D01*
X0236000Y0171331D02*
X0239190Y0171331D01*
X0237642Y0169732D02*
X0237548Y0169732D01*
X0246000Y0171331D02*
X0264190Y0171331D01*
X0262642Y0169732D02*
X0247548Y0169732D01*
X0248210Y0168134D02*
X0261980Y0168134D01*
X0261795Y0166535D02*
X0248395Y0166535D01*
X0248395Y0164937D02*
X0261795Y0164937D01*
X0271000Y0171331D02*
X0274190Y0171331D01*
X0272642Y0169732D02*
X0272548Y0169732D01*
X0281000Y0171331D02*
X0284190Y0171331D01*
X0282642Y0169732D02*
X0282548Y0169732D01*
X0291000Y0171331D02*
X0294190Y0171331D01*
X0292642Y0169732D02*
X0292548Y0169732D01*
X0301000Y0171331D02*
X0376496Y0171331D01*
X0376496Y0172929D02*
X0167814Y0172929D01*
X0166325Y0171441D02*
X0166325Y0171441D01*
X0166215Y0171331D02*
X0169190Y0171331D01*
X0167642Y0169732D02*
X0167548Y0169732D01*
X0169412Y0174528D02*
X0376496Y0174528D01*
X0376496Y0176126D02*
X0171011Y0176126D01*
X0172609Y0177725D02*
X0376496Y0177725D01*
X0376496Y0179323D02*
X0174208Y0179323D01*
X0175806Y0180922D02*
X0376496Y0180922D01*
X0376496Y0182520D02*
X0177405Y0182520D01*
X0179003Y0184119D02*
X0376496Y0184119D01*
X0376496Y0185717D02*
X0299193Y0185717D01*
X0298749Y0185533D02*
X0300881Y0186416D01*
X0302512Y0188048D01*
X0303395Y0190179D01*
X0303395Y0197687D01*
X0302512Y0199819D01*
X0300881Y0201450D01*
X0298749Y0202333D01*
X0296441Y0202333D01*
X0294310Y0201450D01*
X0292678Y0199819D01*
X0292595Y0199618D01*
X0292512Y0199819D01*
X0291995Y0200335D01*
X0291995Y0205131D01*
X0293395Y0206531D01*
X0293395Y0211335D01*
X0289998Y0214733D01*
X0285193Y0214733D01*
X0281795Y0211335D01*
X0281795Y0206531D01*
X0283195Y0205131D01*
X0283195Y0200335D01*
X0282678Y0199819D01*
X0282595Y0199618D01*
X0282512Y0199819D01*
X0280881Y0201450D01*
X0278749Y0202333D01*
X0276441Y0202333D01*
X0274310Y0201450D01*
X0272678Y0199819D01*
X0272595Y0199618D01*
X0272512Y0199819D01*
X0271995Y0200336D01*
X0271995Y0205131D01*
X0273395Y0206531D01*
X0273395Y0211335D01*
X0269998Y0214733D01*
X0265193Y0214733D01*
X0261795Y0211335D01*
X0261795Y0206531D01*
X0263195Y0205131D01*
X0263195Y0200336D01*
X0262678Y0199819D01*
X0261795Y0197687D01*
X0261795Y0190179D01*
X0262678Y0188048D01*
X0264310Y0186416D01*
X0266441Y0185533D01*
X0268749Y0185533D01*
X0270881Y0186416D01*
X0272512Y0188048D01*
X0272595Y0188248D01*
X0272678Y0188048D01*
X0274310Y0186416D01*
X0276441Y0185533D01*
X0278749Y0185533D01*
X0280881Y0186416D01*
X0282512Y0188048D01*
X0282595Y0188248D01*
X0282678Y0188048D01*
X0284310Y0186416D01*
X0286441Y0185533D01*
X0288749Y0185533D01*
X0290881Y0186416D01*
X0292512Y0188048D01*
X0292595Y0188248D01*
X0292678Y0188048D01*
X0294310Y0186416D01*
X0296441Y0185533D01*
X0298749Y0185533D01*
X0295997Y0185717D02*
X0289193Y0185717D01*
X0291780Y0187316D02*
X0293410Y0187316D01*
X0285997Y0185717D02*
X0279193Y0185717D01*
X0281780Y0187316D02*
X0283410Y0187316D01*
X0275997Y0185717D02*
X0269193Y0185717D01*
X0271780Y0187316D02*
X0273410Y0187316D01*
X0265997Y0185717D02*
X0244193Y0185717D01*
X0243749Y0185533D02*
X0245881Y0186416D01*
X0247512Y0188048D01*
X0248395Y0190179D01*
X0248395Y0197687D01*
X0247512Y0199819D01*
X0245881Y0201450D01*
X0243749Y0202333D01*
X0241441Y0202333D01*
X0239310Y0201450D01*
X0237678Y0199819D01*
X0237595Y0199618D01*
X0237512Y0199819D01*
X0236995Y0200335D01*
X0236995Y0205131D01*
X0238395Y0206531D01*
X0238395Y0211335D01*
X0234998Y0214733D01*
X0230193Y0214733D01*
X0226795Y0211335D01*
X0226795Y0206531D01*
X0228195Y0205131D01*
X0228195Y0200335D01*
X0227678Y0199819D01*
X0227595Y0199618D01*
X0227512Y0199819D01*
X0225881Y0201450D01*
X0223749Y0202333D01*
X0221441Y0202333D01*
X0219310Y0201450D01*
X0217678Y0199819D01*
X0217595Y0199618D01*
X0217512Y0199819D01*
X0216995Y0200335D01*
X0216995Y0205131D01*
X0218395Y0206531D01*
X0218395Y0211335D01*
X0214998Y0214733D01*
X0210193Y0214733D01*
X0206795Y0211335D01*
X0206795Y0206531D01*
X0208195Y0205131D01*
X0208195Y0200335D01*
X0207678Y0199819D01*
X0206795Y0197687D01*
X0206795Y0190179D01*
X0207678Y0188048D01*
X0209310Y0186416D01*
X0211441Y0185533D01*
X0213749Y0185533D01*
X0215881Y0186416D01*
X0217512Y0188048D01*
X0217595Y0188248D01*
X0217678Y0188048D01*
X0219310Y0186416D01*
X0221441Y0185533D01*
X0223749Y0185533D01*
X0225881Y0186416D01*
X0227512Y0188048D01*
X0227595Y0188248D01*
X0227678Y0188048D01*
X0229310Y0186416D01*
X0231441Y0185533D01*
X0233749Y0185533D01*
X0235881Y0186416D01*
X0237512Y0188048D01*
X0237595Y0188248D01*
X0237678Y0188048D01*
X0239310Y0186416D01*
X0241441Y0185533D01*
X0243749Y0185533D01*
X0240997Y0185717D02*
X0234193Y0185717D01*
X0236780Y0187316D02*
X0238410Y0187316D01*
X0230997Y0185717D02*
X0224193Y0185717D01*
X0226780Y0187316D02*
X0228410Y0187316D01*
X0220997Y0185717D02*
X0214193Y0185717D01*
X0216780Y0187316D02*
X0218410Y0187316D01*
X0210997Y0185717D02*
X0184193Y0185717D01*
X0186780Y0187316D02*
X0208410Y0187316D01*
X0207319Y0188914D02*
X0187871Y0188914D01*
X0188395Y0190513D02*
X0206795Y0190513D01*
X0206795Y0192111D02*
X0188395Y0192111D01*
X0188395Y0193710D02*
X0206795Y0193710D01*
X0206795Y0195308D02*
X0188395Y0195308D01*
X0188395Y0196907D02*
X0206795Y0196907D01*
X0207134Y0198505D02*
X0188056Y0198505D01*
X0187227Y0200104D02*
X0207963Y0200104D01*
X0208195Y0201702D02*
X0185272Y0201702D01*
X0179919Y0201702D02*
X0176995Y0201702D01*
X0176995Y0203301D02*
X0208195Y0203301D01*
X0208195Y0204899D02*
X0176995Y0204899D01*
X0178362Y0206498D02*
X0206828Y0206498D01*
X0206795Y0208096D02*
X0178395Y0208096D01*
X0178395Y0209695D02*
X0206795Y0209695D01*
X0206795Y0211293D02*
X0178395Y0211293D01*
X0176839Y0212892D02*
X0208352Y0212892D01*
X0209950Y0214490D02*
X0175240Y0214490D01*
X0169950Y0214490D02*
X0155240Y0214490D01*
X0156839Y0212892D02*
X0168352Y0212892D01*
X0166795Y0211293D02*
X0158395Y0211293D01*
X0158395Y0209695D02*
X0166795Y0209695D01*
X0166795Y0208096D02*
X0158395Y0208096D01*
X0158362Y0206498D02*
X0166828Y0206498D01*
X0168195Y0204899D02*
X0156995Y0204899D01*
X0156995Y0203301D02*
X0168195Y0203301D01*
X0168195Y0201702D02*
X0165272Y0201702D01*
X0167227Y0200104D02*
X0167963Y0200104D01*
X0159919Y0201702D02*
X0156995Y0201702D01*
X0157227Y0200104D02*
X0157963Y0200104D01*
X0148195Y0201702D02*
X0118125Y0201702D01*
X0118764Y0200104D02*
X0147963Y0200104D01*
X0147134Y0198505D02*
X0118764Y0198505D01*
X0118433Y0196907D02*
X0146795Y0196907D01*
X0146795Y0195308D02*
X0117694Y0195308D01*
X0116542Y0193710D02*
X0146795Y0193710D01*
X0146795Y0192111D02*
X0117955Y0192111D01*
X0118618Y0190513D02*
X0146795Y0190513D01*
X0147319Y0188914D02*
X0118764Y0188914D01*
X0118602Y0187316D02*
X0148410Y0187316D01*
X0148157Y0185717D02*
X0117940Y0185717D01*
X0116504Y0184119D02*
X0146558Y0184119D01*
X0153218Y0178333D02*
X0160718Y0185833D01*
X0161441Y0185533D01*
X0163749Y0185533D01*
X0165881Y0186416D01*
X0167512Y0188048D01*
X0167595Y0188248D01*
X0167678Y0188048D01*
X0169083Y0186643D01*
X0160773Y0178333D01*
X0153218Y0178333D01*
X0154208Y0179323D02*
X0161763Y0179323D01*
X0163361Y0180922D02*
X0155806Y0180922D01*
X0157405Y0182520D02*
X0164960Y0182520D01*
X0166558Y0184119D02*
X0159003Y0184119D01*
X0160602Y0185717D02*
X0160997Y0185717D01*
X0164193Y0185717D02*
X0168157Y0185717D01*
X0168410Y0187316D02*
X0166780Y0187316D01*
X0180602Y0185717D02*
X0180997Y0185717D01*
X0177963Y0200104D02*
X0177227Y0200104D01*
X0149950Y0214490D02*
X0116876Y0214490D01*
X0117360Y0212892D02*
X0148352Y0212892D01*
X0146795Y0211293D02*
X0118294Y0211293D01*
X0118764Y0209695D02*
X0146795Y0209695D01*
X0146795Y0208096D02*
X0118764Y0208096D01*
X0118263Y0206498D02*
X0146828Y0206498D01*
X0148195Y0204899D02*
X0117285Y0204899D01*
X0116951Y0203301D02*
X0148195Y0203301D01*
X0118094Y0216089D02*
X0313843Y0216089D01*
X0313458Y0214490D02*
X0290240Y0214490D01*
X0291839Y0212892D02*
X0313458Y0212892D01*
X0314043Y0211293D02*
X0293395Y0211293D01*
X0293395Y0209695D02*
X0315141Y0209695D01*
X0317599Y0208096D02*
X0293395Y0208096D01*
X0293362Y0206498D02*
X0376496Y0206498D01*
X0376496Y0208096D02*
X0327592Y0208096D01*
X0330049Y0209695D02*
X0376496Y0209695D01*
X0376496Y0211293D02*
X0331147Y0211293D01*
X0331732Y0212892D02*
X0376496Y0212892D01*
X0376496Y0214490D02*
X0331732Y0214490D01*
X0331347Y0216089D02*
X0376496Y0216089D01*
X0376496Y0217687D02*
X0330533Y0217687D01*
X0329640Y0219286D02*
X0376496Y0219286D01*
X0376496Y0220884D02*
X0330978Y0220884D01*
X0331640Y0222483D02*
X0376496Y0222483D01*
X0376496Y0224081D02*
X0331732Y0224081D01*
X0331517Y0225680D02*
X0376496Y0225680D01*
X0376496Y0227279D02*
X0330855Y0227279D01*
X0329343Y0228877D02*
X0376496Y0228877D01*
X0376496Y0230476D02*
X0330808Y0230476D01*
X0331470Y0232074D02*
X0376496Y0232074D01*
X0376496Y0233673D02*
X0331732Y0233673D01*
X0331686Y0235271D02*
X0376496Y0235271D01*
X0376496Y0236870D02*
X0331024Y0236870D01*
X0329752Y0238468D02*
X0376496Y0238468D01*
X0376496Y0240067D02*
X0330421Y0240067D01*
X0331301Y0241665D02*
X0376496Y0241665D01*
X0376496Y0243264D02*
X0331732Y0243264D01*
X0331732Y0244862D02*
X0376496Y0244862D01*
X0376496Y0246461D02*
X0331193Y0246461D01*
X0330161Y0248059D02*
X0376496Y0248059D01*
X0376496Y0249658D02*
X0327862Y0249658D01*
X0317328Y0249658D02*
X0293395Y0249658D01*
X0293395Y0251256D02*
X0376496Y0251256D01*
X0376496Y0252855D02*
X0291876Y0252855D01*
X0293395Y0251335D02*
X0289998Y0254733D01*
X0285193Y0254733D01*
X0283793Y0253333D01*
X0271398Y0253333D01*
X0269998Y0254733D01*
X0265193Y0254733D01*
X0263793Y0253333D01*
X0236398Y0253333D01*
X0234998Y0254733D01*
X0230193Y0254733D01*
X0228793Y0253333D01*
X0216398Y0253333D01*
X0214998Y0254733D01*
X0210193Y0254733D01*
X0208793Y0253333D01*
X0176398Y0253333D01*
X0174998Y0254733D01*
X0170193Y0254733D01*
X0168793Y0253333D01*
X0156398Y0253333D01*
X0154998Y0254733D01*
X0150193Y0254733D01*
X0146795Y0251335D01*
X0146795Y0246531D01*
X0150193Y0243133D01*
X0154998Y0243133D01*
X0156398Y0244533D01*
X0168793Y0244533D01*
X0170193Y0243133D01*
X0174998Y0243133D01*
X0176398Y0244533D01*
X0208793Y0244533D01*
X0210193Y0243133D01*
X0214998Y0243133D01*
X0216398Y0244533D01*
X0228793Y0244533D01*
X0230193Y0243133D01*
X0234998Y0243133D01*
X0236398Y0244533D01*
X0263793Y0244533D01*
X0265193Y0243133D01*
X0269998Y0243133D01*
X0271398Y0244533D01*
X0283793Y0244533D01*
X0285193Y0243133D01*
X0289998Y0243133D01*
X0293395Y0246531D01*
X0293395Y0251335D01*
X0290277Y0254453D02*
X0376496Y0254453D01*
X0376496Y0256052D02*
X0070595Y0256052D01*
X0070995Y0254453D02*
X0149913Y0254453D01*
X0148314Y0252855D02*
X0070995Y0252855D01*
X0071495Y0251256D02*
X0146795Y0251256D01*
X0146795Y0249658D02*
X0073093Y0249658D01*
X0074692Y0248059D02*
X0146795Y0248059D01*
X0146865Y0246461D02*
X0076290Y0246461D01*
X0077889Y0244862D02*
X0100790Y0244862D01*
X0098202Y0243264D02*
X0079487Y0243264D01*
X0081086Y0241665D02*
X0097050Y0241665D01*
X0096427Y0240067D02*
X0082684Y0240067D01*
X0084283Y0238468D02*
X0096427Y0238468D01*
X0096773Y0236870D02*
X0085881Y0236870D01*
X0087480Y0235271D02*
X0097534Y0235271D01*
X0098611Y0233673D02*
X0089078Y0233673D01*
X0090677Y0232074D02*
X0097219Y0232074D01*
X0096557Y0230476D02*
X0092275Y0230476D01*
X0093874Y0228877D02*
X0096427Y0228877D01*
X0096604Y0227279D02*
X0095472Y0227279D01*
X0097071Y0225680D02*
X0097266Y0225680D01*
X0098669Y0224081D02*
X0098723Y0224081D01*
X0106319Y0223933D02*
X0107595Y0222657D01*
X0108872Y0223933D01*
X0107595Y0225209D01*
X0106319Y0223933D01*
X0106467Y0224081D02*
X0108723Y0224081D01*
X0116467Y0224081D02*
X0306224Y0224081D01*
X0307823Y0222483D02*
X0117769Y0222483D01*
X0118464Y0220884D02*
X0309421Y0220884D01*
X0311020Y0219286D02*
X0118764Y0219286D01*
X0118756Y0217687D02*
X0312618Y0217687D01*
X0314860Y0227890D02*
X0313218Y0229533D01*
X0315303Y0229533D01*
X0315903Y0228933D01*
X0314860Y0227890D01*
X0313874Y0228877D02*
X0315847Y0228877D01*
X0315438Y0238468D02*
X0118764Y0238468D01*
X0118764Y0240067D02*
X0314770Y0240067D01*
X0313889Y0241665D02*
X0118140Y0241665D01*
X0116988Y0243264D02*
X0150062Y0243264D01*
X0148464Y0244862D02*
X0114400Y0244862D01*
X0110790Y0244862D02*
X0104400Y0244862D01*
X0106988Y0243264D02*
X0108202Y0243264D01*
X0077823Y0222483D02*
X0070872Y0222483D01*
X0070995Y0224081D02*
X0076224Y0224081D01*
X0074626Y0225680D02*
X0070749Y0225680D01*
X0070052Y0227279D02*
X0073027Y0227279D01*
X0071429Y0228877D02*
X0068415Y0228877D01*
X0071866Y0220884D02*
X0079421Y0220884D01*
X0081020Y0219286D02*
X0073465Y0219286D01*
X0075063Y0217687D02*
X0082618Y0217687D01*
X0084217Y0216089D02*
X0076465Y0216089D01*
X0076995Y0214490D02*
X0085815Y0214490D01*
X0087414Y0212892D02*
X0076995Y0212892D01*
X0076995Y0211293D02*
X0089012Y0211293D01*
X0091329Y0209695D02*
X0076995Y0209695D01*
X0076995Y0208096D02*
X0096427Y0208096D01*
X0096927Y0206498D02*
X0076995Y0206498D01*
X0076995Y0204899D02*
X0097905Y0204899D01*
X0098239Y0203301D02*
X0076995Y0203301D01*
X0076995Y0201702D02*
X0097065Y0201702D01*
X0096427Y0200104D02*
X0076995Y0200104D01*
X0076995Y0198505D02*
X0096427Y0198505D01*
X0096758Y0196907D02*
X0076995Y0196907D01*
X0076995Y0195308D02*
X0097496Y0195308D01*
X0098648Y0193710D02*
X0076995Y0193710D01*
X0076603Y0192111D02*
X0097235Y0192111D01*
X0096573Y0190513D02*
X0075397Y0190513D01*
X0073799Y0188914D02*
X0096427Y0188914D01*
X0096588Y0187316D02*
X0072200Y0187316D01*
X0070734Y0185717D02*
X0097250Y0185717D01*
X0098686Y0184119D02*
X0070995Y0184119D01*
X0070888Y0182520D02*
X0097459Y0182520D01*
X0096742Y0180922D02*
X0070226Y0180922D01*
X0068788Y0179323D02*
X0096427Y0179323D01*
X0096427Y0177725D02*
X0037395Y0177725D01*
X0037395Y0179323D02*
X0056403Y0179323D01*
X0054965Y0180922D02*
X0037395Y0180922D01*
X0037395Y0182520D02*
X0054302Y0182520D01*
X0054195Y0184119D02*
X0037395Y0184119D01*
X0037395Y0185717D02*
X0054456Y0185717D01*
X0055175Y0187316D02*
X0037395Y0187316D01*
X0037395Y0188914D02*
X0056865Y0188914D01*
X0055213Y0190513D02*
X0037395Y0190513D01*
X0037395Y0192111D02*
X0054472Y0192111D01*
X0054195Y0193710D02*
X0037395Y0193710D01*
X0037395Y0195308D02*
X0054287Y0195308D01*
X0053399Y0196907D02*
X0037395Y0196907D01*
X0037395Y0198505D02*
X0051800Y0198505D01*
X0050202Y0200104D02*
X0037395Y0200104D01*
X0037395Y0201702D02*
X0048757Y0201702D01*
X0048195Y0203301D02*
X0037395Y0203301D01*
X0037395Y0204899D02*
X0048195Y0204899D01*
X0048195Y0206498D02*
X0037395Y0206498D01*
X0037395Y0208096D02*
X0048195Y0208096D01*
X0048195Y0209695D02*
X0037395Y0209695D01*
X0037395Y0211293D02*
X0048195Y0211293D01*
X0048195Y0212892D02*
X0037395Y0212892D01*
X0037395Y0214490D02*
X0048195Y0214490D01*
X0048195Y0216089D02*
X0037395Y0216089D01*
X0037395Y0217687D02*
X0048195Y0217687D01*
X0048195Y0219286D02*
X0037395Y0219286D01*
X0037395Y0220884D02*
X0048195Y0220884D01*
X0048195Y0222483D02*
X0037395Y0222483D01*
X0037395Y0224081D02*
X0048195Y0224081D01*
X0048556Y0225680D02*
X0037395Y0225680D01*
X0037395Y0227279D02*
X0049718Y0227279D01*
X0051317Y0228877D02*
X0037395Y0228877D01*
X0037395Y0230476D02*
X0052915Y0230476D01*
X0054487Y0232074D02*
X0037395Y0232074D01*
X0037395Y0233673D02*
X0054195Y0233673D01*
X0054271Y0235271D02*
X0037395Y0235271D01*
X0037395Y0236870D02*
X0054934Y0236870D01*
X0056328Y0238468D02*
X0037395Y0238468D01*
X0037395Y0240067D02*
X0055659Y0240067D01*
X0054657Y0241665D02*
X0037395Y0241665D01*
X0037395Y0243264D02*
X0054195Y0243264D01*
X0054195Y0244862D02*
X0037395Y0244862D01*
X0037395Y0246461D02*
X0054764Y0246461D01*
X0055919Y0248059D02*
X0037395Y0248059D01*
X0037395Y0249658D02*
X0056068Y0249658D01*
X0054826Y0251256D02*
X0037395Y0251256D01*
X0037395Y0252855D02*
X0054195Y0252855D01*
X0054195Y0254453D02*
X0037395Y0254453D01*
X0037395Y0256052D02*
X0054595Y0256052D01*
X0055510Y0257650D02*
X0037395Y0257650D01*
X0037395Y0259249D02*
X0057672Y0259249D01*
X0067518Y0259249D02*
X0376496Y0259249D01*
X0376496Y0260847D02*
X0037395Y0260847D01*
X0037395Y0262446D02*
X0376496Y0262446D01*
X0376496Y0264044D02*
X0037395Y0264044D01*
X0069680Y0257650D02*
X0376496Y0257650D01*
X0315029Y0248059D02*
X0293395Y0248059D01*
X0293325Y0246461D02*
X0313997Y0246461D01*
X0313458Y0244862D02*
X0291727Y0244862D01*
X0290128Y0243264D02*
X0313458Y0243264D01*
X0285062Y0243264D02*
X0270128Y0243264D01*
X0265062Y0243264D02*
X0235128Y0243264D01*
X0230062Y0243264D02*
X0215128Y0243264D01*
X0210062Y0243264D02*
X0175128Y0243264D01*
X0170062Y0243264D02*
X0155128Y0243264D01*
X0155277Y0254453D02*
X0169913Y0254453D01*
X0175277Y0254453D02*
X0209913Y0254453D01*
X0215277Y0254453D02*
X0229913Y0254453D01*
X0235277Y0254453D02*
X0264913Y0254453D01*
X0270277Y0254453D02*
X0284913Y0254453D01*
X0284950Y0214490D02*
X0270240Y0214490D01*
X0271839Y0212892D02*
X0283352Y0212892D01*
X0281795Y0211293D02*
X0273395Y0211293D01*
X0273395Y0209695D02*
X0281795Y0209695D01*
X0281795Y0208096D02*
X0273395Y0208096D01*
X0273362Y0206498D02*
X0281828Y0206498D01*
X0283195Y0204899D02*
X0271995Y0204899D01*
X0271995Y0203301D02*
X0283195Y0203301D01*
X0283195Y0201702D02*
X0280272Y0201702D01*
X0282227Y0200104D02*
X0282963Y0200104D01*
X0274919Y0201702D02*
X0271995Y0201702D01*
X0272227Y0200104D02*
X0272963Y0200104D01*
X0263195Y0201702D02*
X0245272Y0201702D01*
X0247227Y0200104D02*
X0262963Y0200104D01*
X0262134Y0198505D02*
X0248056Y0198505D01*
X0248395Y0196907D02*
X0261795Y0196907D01*
X0261795Y0195308D02*
X0248395Y0195308D01*
X0248395Y0193710D02*
X0261795Y0193710D01*
X0261795Y0192111D02*
X0248395Y0192111D01*
X0248395Y0190513D02*
X0261795Y0190513D01*
X0262319Y0188914D02*
X0247871Y0188914D01*
X0246780Y0187316D02*
X0263410Y0187316D01*
X0263195Y0203301D02*
X0236995Y0203301D01*
X0236995Y0204899D02*
X0263195Y0204899D01*
X0261828Y0206498D02*
X0238362Y0206498D01*
X0238395Y0208096D02*
X0261795Y0208096D01*
X0261795Y0209695D02*
X0238395Y0209695D01*
X0238395Y0211293D02*
X0261795Y0211293D01*
X0263352Y0212892D02*
X0236839Y0212892D01*
X0235240Y0214490D02*
X0264950Y0214490D01*
X0239919Y0201702D02*
X0236995Y0201702D01*
X0237227Y0200104D02*
X0237963Y0200104D01*
X0228195Y0201702D02*
X0225272Y0201702D01*
X0227227Y0200104D02*
X0227963Y0200104D01*
X0228195Y0203301D02*
X0216995Y0203301D01*
X0216995Y0204899D02*
X0228195Y0204899D01*
X0226828Y0206498D02*
X0218362Y0206498D01*
X0218395Y0208096D02*
X0226795Y0208096D01*
X0226795Y0209695D02*
X0218395Y0209695D01*
X0218395Y0211293D02*
X0226795Y0211293D01*
X0228352Y0212892D02*
X0216839Y0212892D01*
X0215240Y0214490D02*
X0229950Y0214490D01*
X0219919Y0201702D02*
X0216995Y0201702D01*
X0217227Y0200104D02*
X0217963Y0200104D01*
X0179190Y0171331D02*
X0176000Y0171331D01*
X0177548Y0169732D02*
X0177642Y0169732D01*
X0187717Y0158543D02*
X0200982Y0158543D01*
X0199384Y0156944D02*
X0186995Y0156944D01*
X0186995Y0155345D02*
X0197785Y0155345D01*
X0196187Y0153747D02*
X0186995Y0153747D01*
X0187582Y0152148D02*
X0194588Y0152148D01*
X0192989Y0150550D02*
X0188395Y0150550D01*
X0188395Y0148951D02*
X0191391Y0148951D01*
X0189792Y0147353D02*
X0188395Y0147353D01*
X0188194Y0145754D02*
X0187619Y0145754D01*
X0186595Y0144156D02*
X0186020Y0144156D01*
X0184997Y0142557D02*
X0171995Y0142557D01*
X0171995Y0140959D02*
X0183398Y0140959D01*
X0181800Y0139360D02*
X0171995Y0139360D01*
X0171995Y0137762D02*
X0180201Y0137762D01*
X0178603Y0136163D02*
X0171995Y0136163D01*
X0171995Y0134565D02*
X0177004Y0134565D01*
X0175406Y0132966D02*
X0171995Y0132966D01*
X0171995Y0131368D02*
X0173841Y0131368D01*
X0173195Y0129769D02*
X0171995Y0129769D01*
X0171995Y0128171D02*
X0173195Y0128171D01*
X0173195Y0126572D02*
X0171995Y0126572D01*
X0171995Y0124974D02*
X0173195Y0124974D01*
X0173195Y0123375D02*
X0171995Y0123375D01*
X0171995Y0121777D02*
X0173195Y0121777D01*
X0173195Y0120178D02*
X0171995Y0120178D01*
X0171995Y0118580D02*
X0173195Y0118580D01*
X0173195Y0116981D02*
X0171995Y0116981D01*
X0171995Y0115383D02*
X0173195Y0115383D01*
X0173195Y0113784D02*
X0171995Y0113784D01*
X0171995Y0112186D02*
X0173195Y0112186D01*
X0173195Y0110587D02*
X0171995Y0110587D01*
X0171995Y0108989D02*
X0173195Y0108989D01*
X0173195Y0107390D02*
X0171995Y0107390D01*
X0171995Y0105792D02*
X0173195Y0105792D01*
X0173195Y0104193D02*
X0171995Y0104193D01*
X0171995Y0102595D02*
X0173195Y0102595D01*
X0173195Y0100996D02*
X0171995Y0100996D01*
X0171995Y0099398D02*
X0173195Y0099398D01*
X0173195Y0097799D02*
X0171995Y0097799D01*
X0171995Y0096201D02*
X0173195Y0096201D01*
X0173195Y0094602D02*
X0171995Y0094602D01*
X0171995Y0093004D02*
X0173195Y0093004D01*
X0173195Y0091405D02*
X0171995Y0091405D01*
X0171995Y0089807D02*
X0173195Y0089807D01*
X0173195Y0088208D02*
X0171995Y0088208D01*
X0171995Y0086610D02*
X0173195Y0086610D01*
X0163195Y0086610D02*
X0161995Y0086610D01*
X0161995Y0086301D02*
X0161995Y0103133D01*
X0163195Y0103133D01*
X0163195Y0086301D01*
X0162595Y0085701D01*
X0161995Y0086301D01*
X0161995Y0088208D02*
X0163195Y0088208D01*
X0163195Y0089807D02*
X0161995Y0089807D01*
X0161995Y0091405D02*
X0163195Y0091405D01*
X0163195Y0093004D02*
X0161995Y0093004D01*
X0161995Y0094602D02*
X0163195Y0094602D01*
X0163195Y0096201D02*
X0161995Y0096201D01*
X0161995Y0097799D02*
X0163195Y0097799D01*
X0163195Y0099398D02*
X0161995Y0099398D01*
X0161995Y0100996D02*
X0163195Y0100996D01*
X0163195Y0102595D02*
X0161995Y0102595D01*
X0153195Y0102595D02*
X0037395Y0102595D01*
X0037395Y0104193D02*
X0153195Y0104193D01*
X0153195Y0105792D02*
X0037395Y0105792D01*
X0037395Y0107390D02*
X0153195Y0107390D01*
X0153195Y0108989D02*
X0037395Y0108989D01*
X0037395Y0110587D02*
X0153195Y0110587D01*
X0153195Y0112186D02*
X0037395Y0112186D01*
X0037395Y0113784D02*
X0153195Y0113784D01*
X0153195Y0115383D02*
X0037395Y0115383D01*
X0037395Y0116981D02*
X0153195Y0116981D01*
X0153195Y0118580D02*
X0037395Y0118580D01*
X0037395Y0120178D02*
X0153195Y0120178D01*
X0153195Y0121777D02*
X0037395Y0121777D01*
X0037395Y0123375D02*
X0153195Y0123375D01*
X0153195Y0124974D02*
X0037395Y0124974D01*
X0037395Y0126572D02*
X0153195Y0126572D01*
X0153195Y0128171D02*
X0037395Y0128171D01*
X0037395Y0129769D02*
X0153195Y0129769D01*
X0153195Y0131368D02*
X0037395Y0131368D01*
X0037395Y0132966D02*
X0153195Y0132966D01*
X0153195Y0134565D02*
X0037395Y0134565D01*
X0037395Y0136163D02*
X0153195Y0136163D01*
X0153195Y0137762D02*
X0037395Y0137762D01*
X0037395Y0139360D02*
X0153195Y0139360D01*
X0153195Y0140959D02*
X0037395Y0140959D01*
X0037395Y0142557D02*
X0153195Y0142557D01*
X0153195Y0144156D02*
X0037395Y0144156D01*
X0037395Y0145754D02*
X0153195Y0145754D01*
X0153195Y0147353D02*
X0037395Y0147353D01*
X0037395Y0148951D02*
X0153195Y0148951D01*
X0153195Y0150550D02*
X0037395Y0150550D01*
X0037395Y0152148D02*
X0153195Y0152148D01*
X0153195Y0153747D02*
X0037395Y0153747D01*
X0037395Y0155345D02*
X0153195Y0155345D01*
X0148782Y0156944D02*
X0037395Y0156944D01*
X0037395Y0158543D02*
X0147473Y0158543D01*
X0146811Y0160141D02*
X0037395Y0160141D01*
X0037395Y0161740D02*
X0146795Y0161740D01*
X0146795Y0163338D02*
X0037395Y0163338D01*
X0037395Y0164937D02*
X0146795Y0164937D01*
X0146795Y0166535D02*
X0037395Y0166535D01*
X0037395Y0168134D02*
X0146980Y0168134D01*
X0171995Y0155345D02*
X0178195Y0155345D01*
X0178195Y0153747D02*
X0171995Y0153747D01*
X0171995Y0152148D02*
X0177608Y0152148D01*
X0176795Y0150550D02*
X0171995Y0150550D01*
X0171995Y0148951D02*
X0176795Y0148951D01*
X0176795Y0147353D02*
X0171995Y0147353D01*
X0171995Y0145754D02*
X0177571Y0145754D01*
X0179170Y0144156D02*
X0171995Y0144156D01*
X0163195Y0143133D02*
X0163195Y0114733D01*
X0161995Y0114733D01*
X0161995Y0143133D01*
X0163195Y0143133D01*
X0163195Y0142557D02*
X0161995Y0142557D01*
X0161995Y0140959D02*
X0163195Y0140959D01*
X0163195Y0139360D02*
X0161995Y0139360D01*
X0161995Y0137762D02*
X0163195Y0137762D01*
X0163195Y0136163D02*
X0161995Y0136163D01*
X0161995Y0134565D02*
X0163195Y0134565D01*
X0163195Y0132966D02*
X0161995Y0132966D01*
X0161995Y0131368D02*
X0163195Y0131368D01*
X0163195Y0129769D02*
X0161995Y0129769D01*
X0161995Y0128171D02*
X0163195Y0128171D01*
X0163195Y0126572D02*
X0161995Y0126572D01*
X0161995Y0124974D02*
X0163195Y0124974D01*
X0163195Y0123375D02*
X0161995Y0123375D01*
X0161995Y0121777D02*
X0163195Y0121777D01*
X0163195Y0120178D02*
X0161995Y0120178D01*
X0161995Y0118580D02*
X0163195Y0118580D01*
X0163195Y0116981D02*
X0161995Y0116981D01*
X0161995Y0115383D02*
X0163195Y0115383D01*
X0153195Y0100996D02*
X0037395Y0100996D01*
X0037395Y0099398D02*
X0153195Y0099398D01*
X0153195Y0097799D02*
X0037395Y0097799D01*
X0037395Y0096201D02*
X0153195Y0096201D01*
X0153195Y0094602D02*
X0037395Y0094602D01*
X0037395Y0093004D02*
X0121208Y0093004D01*
X0121368Y0093070D02*
X0119101Y0092131D01*
X0117366Y0090396D01*
X0116427Y0088129D01*
X0116427Y0079738D01*
X0117366Y0077470D01*
X0119101Y0075735D01*
X0121368Y0074796D01*
X0123822Y0074796D01*
X0126089Y0075735D01*
X0127595Y0077241D01*
X0129101Y0075735D01*
X0131368Y0074796D01*
X0133822Y0074796D01*
X0136089Y0075735D01*
X0137825Y0077470D01*
X0138764Y0079738D01*
X0138764Y0088129D01*
X0137825Y0090396D01*
X0136089Y0092131D01*
X0133822Y0093070D01*
X0131368Y0093070D01*
X0129101Y0092131D01*
X0127595Y0090625D01*
X0126089Y0092131D01*
X0123822Y0093070D01*
X0121368Y0093070D01*
X0123983Y0093004D02*
X0131208Y0093004D01*
X0133983Y0093004D02*
X0153195Y0093004D01*
X0153195Y0091405D02*
X0136815Y0091405D01*
X0138069Y0089807D02*
X0153195Y0089807D01*
X0153195Y0088208D02*
X0138731Y0088208D01*
X0138764Y0086610D02*
X0153195Y0086610D01*
X0152159Y0085011D02*
X0138764Y0085011D01*
X0138764Y0083412D02*
X0151497Y0083412D01*
X0151395Y0081814D02*
X0138764Y0081814D01*
X0138764Y0080215D02*
X0151395Y0080215D01*
X0151395Y0078617D02*
X0138299Y0078617D01*
X0137373Y0077018D02*
X0151395Y0077018D01*
X0151395Y0075420D02*
X0135328Y0075420D01*
X0129862Y0075420D02*
X0125328Y0075420D01*
X0127373Y0077018D02*
X0127818Y0077018D01*
X0119862Y0075420D02*
X0037395Y0075420D01*
X0037395Y0077018D02*
X0117818Y0077018D01*
X0116891Y0078617D02*
X0037395Y0078617D01*
X0037395Y0080215D02*
X0116427Y0080215D01*
X0116427Y0081814D02*
X0037395Y0081814D01*
X0037395Y0083412D02*
X0116427Y0083412D01*
X0116427Y0085011D02*
X0037395Y0085011D01*
X0037395Y0086610D02*
X0116427Y0086610D01*
X0116460Y0088208D02*
X0037395Y0088208D01*
X0037395Y0089807D02*
X0117122Y0089807D01*
X0118375Y0091405D02*
X0037395Y0091405D01*
X0037395Y0073821D02*
X0151759Y0073821D01*
X0152537Y0072223D02*
X0037395Y0072223D01*
X0037395Y0070624D02*
X0154210Y0070624D01*
X0160980Y0070624D02*
X0164210Y0070624D01*
X0170980Y0070624D02*
X0174210Y0070624D01*
X0180980Y0070624D02*
X0184210Y0070624D01*
X0190980Y0070624D02*
X0194210Y0070624D01*
X0200980Y0070624D02*
X0239210Y0070624D01*
X0237537Y0072223D02*
X0202653Y0072223D01*
X0203431Y0073821D02*
X0236759Y0073821D01*
X0236395Y0075420D02*
X0203795Y0075420D01*
X0203795Y0077018D02*
X0236395Y0077018D01*
X0245980Y0070624D02*
X0249210Y0070624D01*
X0255980Y0070624D02*
X0259210Y0070624D01*
X0265980Y0070624D02*
X0269210Y0070624D01*
X0275980Y0070624D02*
X0279210Y0070624D01*
X0219133Y0104193D02*
X0186995Y0104193D01*
X0191687Y0086610D02*
X0193503Y0086610D01*
X0128375Y0091405D02*
X0126815Y0091405D01*
X0176409Y0156944D02*
X0178195Y0156944D01*
X0108872Y0183933D02*
X0107595Y0182657D01*
X0106319Y0183933D01*
X0107595Y0185209D01*
X0108872Y0183933D01*
X0108686Y0184119D02*
X0106504Y0184119D01*
X0107595Y0192657D02*
X0106319Y0193933D01*
X0107595Y0195209D01*
X0108872Y0193933D01*
X0107595Y0192657D01*
X0106542Y0193710D02*
X0108648Y0193710D01*
X0107595Y0202657D02*
X0106319Y0203933D01*
X0107595Y0205209D01*
X0108872Y0203933D01*
X0107595Y0202657D01*
X0106951Y0203301D02*
X0108239Y0203301D01*
X0107905Y0204899D02*
X0107285Y0204899D01*
X0097081Y0176126D02*
X0037395Y0176126D01*
X0037395Y0174528D02*
X0098277Y0174528D01*
X0100971Y0172929D02*
X0037395Y0172929D01*
X0037395Y0171331D02*
X0103975Y0171331D01*
X0106239Y0169732D02*
X0037395Y0169732D01*
X0291995Y0201702D02*
X0294919Y0201702D01*
X0292963Y0200104D02*
X0292227Y0200104D01*
X0291995Y0203301D02*
X0376496Y0203301D01*
X0376496Y0204899D02*
X0291995Y0204899D01*
X0300272Y0201702D02*
X0376496Y0201702D01*
X0376496Y0200104D02*
X0302227Y0200104D01*
X0303056Y0198505D02*
X0376496Y0198505D01*
X0376496Y0196907D02*
X0303395Y0196907D01*
X0303395Y0195308D02*
X0376496Y0195308D01*
X0376496Y0193710D02*
X0303395Y0193710D01*
X0303395Y0192111D02*
X0376496Y0192111D01*
X0376496Y0190513D02*
X0303395Y0190513D01*
X0302871Y0188914D02*
X0376496Y0188914D01*
X0376496Y0187316D02*
X0301780Y0187316D01*
X0302548Y0169732D02*
X0376496Y0169732D01*
X0376496Y0168134D02*
X0303210Y0168134D01*
X0303395Y0166535D02*
X0376496Y0166535D01*
X0376496Y0164937D02*
X0303395Y0164937D01*
X0303395Y0163338D02*
X0376496Y0163338D01*
X0376496Y0161740D02*
X0303395Y0161740D01*
X0303379Y0160141D02*
X0376496Y0160141D01*
X0376496Y0158543D02*
X0302717Y0158543D01*
X0303395Y0148951D02*
X0345921Y0148951D01*
X0344366Y0147353D02*
X0303395Y0147353D01*
X0302619Y0145754D02*
X0343704Y0145754D01*
X0343458Y0144156D02*
X0301020Y0144156D01*
X0343055Y0128171D02*
X0347419Y0128171D01*
X0345067Y0129769D02*
X0344654Y0129769D01*
X0359641Y0118580D02*
X0376496Y0118580D01*
X0376496Y0116981D02*
X0360978Y0116981D01*
X0361640Y0115383D02*
X0376496Y0115383D01*
X0376496Y0113784D02*
X0361732Y0113784D01*
X0361517Y0112186D02*
X0376496Y0112186D01*
X0376496Y0110587D02*
X0360854Y0110587D01*
X0359343Y0108989D02*
X0376496Y0108989D01*
X0376496Y0107390D02*
X0360808Y0107390D01*
X0362294Y0105792D02*
X0376496Y0105792D01*
X0376496Y0104193D02*
X0365575Y0104193D01*
X0367419Y0102595D02*
X0376496Y0102595D01*
X0376496Y0100996D02*
X0368235Y0100996D01*
X0368643Y0099398D02*
X0376496Y0099398D01*
X0376496Y0097799D02*
X0368595Y0097799D01*
X0368595Y0096201D02*
X0376496Y0096201D01*
X0376496Y0094602D02*
X0368595Y0094602D01*
X0368595Y0093004D02*
X0376496Y0093004D01*
X0376496Y0091405D02*
X0368595Y0091405D01*
X0368595Y0089807D02*
X0376496Y0089807D01*
X0376496Y0088208D02*
X0368662Y0088208D01*
X0368145Y0086610D02*
X0376496Y0086610D01*
X0376496Y0085011D02*
X0367158Y0085011D01*
X0364970Y0083412D02*
X0376496Y0083412D01*
X0376496Y0081814D02*
X0361773Y0081814D01*
X0360570Y0080215D02*
X0376496Y0080215D01*
X0376496Y0078617D02*
X0358848Y0078617D01*
M02*
