%
M48
M72
T01C0.03200
T02C0.03937
T03C0.04000
%
T01
X162595Y108933
X182595Y108933
X222595Y108933
X242595Y108933
X277595Y108933
X297595Y108933
X297595Y148933
X277595Y148933
X277595Y163933
X287595Y163933
X297595Y163933
X267595Y163933
X242595Y163933
X232595Y163933
X222595Y163933
X212595Y163933
X222595Y148933
X242595Y148933
X182595Y148933
X162595Y148933
X162595Y163933
X172595Y163933
X182595Y163933
X152595Y163933
X152595Y193933
X162595Y193933
X172595Y193933
X182595Y193933
X172595Y208933
X152595Y208933
X152595Y248933
X172595Y248933
X212595Y248933
X232595Y248933
X267595Y248933
X287595Y248933
X287595Y208933
X287595Y193933
X277595Y193933
X267595Y193933
X267595Y208933
X242595Y193933
X232595Y193933
X222595Y193933
X212595Y193933
X212595Y208933
X232595Y208933
X297595Y193933
X62595Y193933
X62595Y203933
X62595Y213933
X62595Y223933
X62595Y233933
X62595Y243933
X62595Y253933
X62595Y183933
T02
X122595Y83933
X132595Y83933
X112595Y178933
X102595Y178933
X102595Y188933
X102595Y198933
X112595Y198933
X112595Y188933
X112595Y208933
X102595Y208933
X102595Y218933
X102595Y228933
X112595Y228933
X112595Y218933
X112595Y238933
X102595Y238933
X322595Y233933
X322595Y223933
X322595Y213933
X322595Y243933
X352595Y143933
X352595Y133933
X352595Y113933
X352595Y103933
X352595Y93933
X352595Y83933
X312595Y83933
X302595Y83933
T03
X282595Y78933
X272595Y78933
X262595Y78933
X252595Y78933
X242595Y78933
X197595Y78933
X187595Y78933
X177595Y78933
X167595Y78933
X157595Y78933
M30
