G75*
%MOIN*%
%OFA0B0*%
%FSLAX25Y25*%
%IPPOS*%
%LPD*%
%AMOC8*
5,1,8,0,0,1.08239X$1,22.5*
%
%ADD10C,0.00000*%
%ADD11C,0.00512*%
%ADD12C,0.00600*%
D10*
X0032595Y0053933D02*
X0032595Y0268894D01*
X0381296Y0268894D01*
X0381296Y0053933D01*
X0032595Y0053933D01*
D11*
X0032595Y0001256D01*
X0032851Y0008933D02*
X0042831Y0007909D01*
X0042831Y0007676D02*
X0032851Y0008933D01*
X0042831Y0009957D01*
X0042831Y0010190D02*
X0042831Y0007676D01*
X0042831Y0008421D02*
X0032851Y0008933D01*
X0042831Y0009445D01*
X0042831Y0010190D02*
X0032851Y0008933D01*
X0382339Y0008933D01*
X0372359Y0007909D01*
X0372359Y0007676D02*
X0382339Y0008933D01*
X0372359Y0009957D01*
X0372359Y0010190D02*
X0372359Y0007676D01*
X0372359Y0008421D02*
X0382339Y0008933D01*
X0372359Y0009445D01*
X0372359Y0010190D02*
X0382339Y0008933D01*
X0382595Y0001256D02*
X0382595Y0053933D01*
X0032595Y0053933D02*
X0004918Y0053933D01*
X0012595Y0054189D02*
X0013619Y0064169D01*
X0013852Y0064169D02*
X0012595Y0054189D01*
X0011572Y0064169D01*
X0011338Y0064169D02*
X0013852Y0064169D01*
X0013107Y0064169D02*
X0012595Y0054189D01*
X0012083Y0064169D01*
X0011338Y0064169D02*
X0012595Y0054189D01*
X0012595Y0268677D01*
X0013619Y0258697D01*
X0013852Y0258697D02*
X0012595Y0268677D01*
X0011572Y0258697D01*
X0011338Y0258697D02*
X0013852Y0258697D01*
X0013107Y0258697D02*
X0012595Y0268677D01*
X0012083Y0258697D01*
X0011338Y0258697D02*
X0012595Y0268677D01*
X0004918Y0268933D02*
X0032595Y0268933D01*
D12*
X0010033Y0176070D02*
X0010033Y0171800D01*
X0010033Y0173935D02*
X0003628Y0173935D01*
X0005763Y0171800D01*
X0003628Y0169624D02*
X0004695Y0167489D01*
X0006831Y0165354D01*
X0006831Y0168557D01*
X0007898Y0169624D01*
X0008966Y0169624D01*
X0010033Y0168557D01*
X0010033Y0166422D01*
X0008966Y0165354D01*
X0006831Y0165354D01*
X0008966Y0163199D02*
X0010033Y0163199D01*
X0010033Y0162131D01*
X0008966Y0162131D01*
X0008966Y0163199D01*
X0006831Y0159956D02*
X0006831Y0155686D01*
X0003628Y0158889D01*
X0010033Y0158889D01*
X0008966Y0153511D02*
X0006831Y0153511D01*
X0005763Y0152443D01*
X0005763Y0151376D01*
X0006831Y0149240D01*
X0003628Y0149240D01*
X0003628Y0153511D01*
X0008966Y0153511D02*
X0010033Y0152443D01*
X0010033Y0150308D01*
X0008966Y0149240D01*
X0195402Y0016833D02*
X0195402Y0015765D01*
X0196470Y0014698D01*
X0198605Y0014698D01*
X0199673Y0013630D01*
X0199673Y0012562D01*
X0198605Y0011495D01*
X0196470Y0011495D01*
X0195402Y0012562D01*
X0195402Y0013630D01*
X0196470Y0014698D01*
X0198605Y0014698D02*
X0199673Y0015765D01*
X0199673Y0016833D01*
X0198605Y0017900D01*
X0196470Y0017900D01*
X0195402Y0016833D01*
X0201848Y0016833D02*
X0201848Y0015765D01*
X0202916Y0014698D01*
X0205051Y0014698D01*
X0206118Y0013630D01*
X0206118Y0012562D01*
X0205051Y0011495D01*
X0202916Y0011495D01*
X0201848Y0012562D01*
X0201848Y0013630D01*
X0202916Y0014698D01*
X0205051Y0014698D02*
X0206118Y0015765D01*
X0206118Y0016833D01*
X0205051Y0017900D01*
X0202916Y0017900D01*
X0201848Y0016833D01*
X0208293Y0012562D02*
X0209361Y0012562D01*
X0209361Y0011495D01*
X0208293Y0011495D01*
X0208293Y0012562D01*
X0211516Y0012562D02*
X0212584Y0011495D01*
X0214719Y0011495D01*
X0215786Y0012562D01*
X0215786Y0016833D01*
X0214719Y0017900D01*
X0212584Y0017900D01*
X0211516Y0016833D01*
X0211516Y0015765D01*
X0212584Y0014698D01*
X0215786Y0014698D01*
X0217962Y0016833D02*
X0217962Y0012562D01*
X0222232Y0016833D01*
X0222232Y0012562D01*
X0221164Y0011495D01*
X0219029Y0011495D01*
X0217962Y0012562D01*
X0217962Y0016833D02*
X0219029Y0017900D01*
X0221164Y0017900D01*
X0222232Y0016833D01*
M02*
