G75*
%MOIN*%
%OFA0B0*%
%FSLAX25Y25*%
%IPPOS*%
%LPD*%
%AMOC8*
5,1,8,0,0,1.08239X$1,22.5*
%
%ADD10C,0.06000*%
%ADD11OC8,0.06000*%
%ADD12C,0.06737*%
%ADD13C,0.06737*%
%ADD14C,0.06800*%
D10*
X0152595Y0161333D02*
X0152595Y0166533D01*
X0162595Y0166533D02*
X0162595Y0161333D01*
X0172595Y0161333D02*
X0172595Y0166533D01*
X0182595Y0166533D02*
X0182595Y0161333D01*
X0212595Y0161333D02*
X0212595Y0166533D01*
X0222595Y0166533D02*
X0222595Y0161333D01*
X0232595Y0161333D02*
X0232595Y0166533D01*
X0242595Y0166533D02*
X0242595Y0161333D01*
X0267595Y0161333D02*
X0267595Y0166533D01*
X0277595Y0166533D02*
X0277595Y0161333D01*
X0287595Y0161333D02*
X0287595Y0166533D01*
X0297595Y0166533D02*
X0297595Y0161333D01*
X0297595Y0191333D02*
X0297595Y0196533D01*
X0287595Y0196533D02*
X0287595Y0191333D01*
X0277595Y0191333D02*
X0277595Y0196533D01*
X0267595Y0196533D02*
X0267595Y0191333D01*
X0242595Y0191333D02*
X0242595Y0196533D01*
X0232595Y0196533D02*
X0232595Y0191333D01*
X0222595Y0191333D02*
X0222595Y0196533D01*
X0212595Y0196533D02*
X0212595Y0191333D01*
X0182595Y0191333D02*
X0182595Y0196533D01*
X0172595Y0196533D02*
X0172595Y0191333D01*
X0162595Y0191333D02*
X0162595Y0196533D01*
X0152595Y0196533D02*
X0152595Y0191333D01*
X0065195Y0193933D02*
X0059995Y0193933D01*
X0059995Y0203933D02*
X0065195Y0203933D01*
X0065195Y0213933D02*
X0059995Y0213933D01*
X0059995Y0223933D02*
X0065195Y0223933D01*
X0065195Y0233933D02*
X0059995Y0233933D01*
X0059995Y0243933D02*
X0065195Y0243933D01*
X0065195Y0253933D02*
X0059995Y0253933D01*
X0059995Y0183933D02*
X0065195Y0183933D01*
D11*
X0152595Y0208933D03*
X0172595Y0208933D03*
X0212595Y0208933D03*
X0232595Y0208933D03*
X0267595Y0208933D03*
X0287595Y0208933D03*
X0287595Y0248933D03*
X0267595Y0248933D03*
X0232595Y0248933D03*
X0212595Y0248933D03*
X0172595Y0248933D03*
X0152595Y0248933D03*
X0162595Y0148933D03*
X0182595Y0148933D03*
X0222595Y0148933D03*
X0242595Y0148933D03*
X0277595Y0148933D03*
X0297595Y0148933D03*
X0297595Y0108933D03*
X0277595Y0108933D03*
X0242595Y0108933D03*
X0222595Y0108933D03*
X0182595Y0108933D03*
X0162595Y0108933D03*
D12*
X0112595Y0178933D03*
X0102595Y0178933D03*
X0102595Y0188933D03*
X0102595Y0198933D03*
X0112595Y0198933D03*
X0112595Y0188933D03*
X0112595Y0208933D03*
X0102595Y0208933D03*
X0102595Y0218933D03*
X0102595Y0228933D03*
X0112595Y0228933D03*
X0112595Y0218933D03*
X0112595Y0238933D03*
X0102595Y0238933D03*
D13*
X0122595Y0086902D02*
X0122595Y0080965D01*
X0132595Y0080965D02*
X0132595Y0086902D01*
X0302595Y0086902D02*
X0302595Y0080965D01*
X0312595Y0080965D02*
X0312595Y0086902D01*
X0349627Y0083933D02*
X0355564Y0083933D01*
X0355564Y0093933D02*
X0349627Y0093933D01*
X0349627Y0103933D02*
X0355564Y0103933D01*
X0355564Y0113933D02*
X0349627Y0113933D01*
X0349627Y0133933D02*
X0355564Y0133933D01*
X0355564Y0143933D02*
X0349627Y0143933D01*
X0325564Y0213933D02*
X0319627Y0213933D01*
X0319627Y0223933D02*
X0325564Y0223933D01*
X0325564Y0233933D02*
X0319627Y0233933D01*
X0319627Y0243933D02*
X0325564Y0243933D01*
D14*
X0282595Y0081933D02*
X0282595Y0075933D01*
X0272595Y0075933D02*
X0272595Y0081933D01*
X0262595Y0081933D02*
X0262595Y0075933D01*
X0252595Y0075933D02*
X0252595Y0081933D01*
X0242595Y0081933D02*
X0242595Y0075933D01*
X0197595Y0075933D02*
X0197595Y0081933D01*
X0187595Y0081933D02*
X0187595Y0075933D01*
X0177595Y0075933D02*
X0177595Y0081933D01*
X0167595Y0081933D02*
X0167595Y0075933D01*
X0157595Y0075933D02*
X0157595Y0081933D01*
M02*
